<svg id="_1" data-name="1" xmlns="http://www.w3.org/2000/svg" viewBox="0 0 720.53 267.66"><defs><style>.cls-1{fill:#f1aeaf;}.cls-1,.cls-10,.cls-100,.cls-101,.cls-102,.cls-11,.cls-12,.cls-13,.cls-14,.cls-15,.cls-16,.cls-17,.cls-18,.cls-19,.cls-2,.cls-20,.cls-21,.cls-22,.cls-23,.cls-24,.cls-25,.cls-26,.cls-27,.cls-28,.cls-29,.cls-3,.cls-30,.cls-31,.cls-32,.cls-33,.cls-34,.cls-35,.cls-36,.cls-37,.cls-38,.cls-39,.cls-4,.cls-40,.cls-41,.cls-42,.cls-43,.cls-44,.cls-45,.cls-46,.cls-47,.cls-48,.cls-49,.cls-5,.cls-50,.cls-51,.cls-52,.cls-53,.cls-54,.cls-55,.cls-56,.cls-57,.cls-58,.cls-59,.cls-6,.cls-60,.cls-61,.cls-62,.cls-63,.cls-64,.cls-65,.cls-66,.cls-67,.cls-68,.cls-69,.cls-7,.cls-70,.cls-71,.cls-72,.cls-73,.cls-74,.cls-75,.cls-76,.cls-77,.cls-78,.cls-79,.cls-8,.cls-80,.cls-81,.cls-82,.cls-84,.cls-85,.cls-86,.cls-87,.cls-88,.cls-89,.cls-9,.cls-90,.cls-91,.cls-92,.cls-93,.cls-94,.cls-95,.cls-96{fill-rule:evenodd;}.cls-2{fill:#b1cef0;}.cls-3{fill:#adb3ec;}.cls-4{fill:#b5eefb;}.cls-5{fill:#d1f1fa;}.cls-6{fill:#cc8c90;}.cls-7{fill:#d16b6e;}.cls-8{fill:#a09ea5;}.cls-9{fill:#f5d0d2;}.cls-10{fill:#514e93;}.cls-11{fill:#cd99a7;}.cls-12{fill:#fad3af;}.cls-13{fill:#077392;}.cls-14{fill:#649ddc;}.cls-15{fill:#d4d2a1;}.cls-16{fill:#d2acb1;}.cls-17{fill:#ffd769;}.cls-18{fill:#f5aa53;}.cls-19{fill:#c9564e;}.cls-20{fill:#d18a4e;}.cls-21{fill:#a99a68;}.cls-22{fill:#72102b;}.cls-23{fill:#f2d7ec;}.cls-24{fill:#fc7717;}.cls-25{fill:#082a76;}.cls-26{fill:#f0eff7;}.cls-27{fill:#926e73;}.cls-28{fill:#912c31;}.cls-29{fill:#a82d34;}.cls-30{fill:#cecff4;}.cls-31{fill:#a1ced4;}.cls-32{fill:#ec9090;}.cls-33{fill:#a72701;}.cls-34{fill:#8b8dd0;}.cls-35{fill:#ffb737;}.cls-36{fill:#088dd0;}.cls-37{fill:#924c11;}.cls-38{fill:#f9e9cf;}.cls-39{fill:#fec857;}.cls-40{fill:#2b33ac;}.cls-41{fill:#4c53af;}.cls-42{fill:#024eb0;}.cls-43{fill:#fffba8;}.cls-44{fill:#ffc827;}.cls-45{fill:#0a0852;}.cls-46{fill:#ffd888;}.cls-47{fill:#ffe8b8;}.cls-48{fill:#971927;}.cls-49{fill:#fffdd7;}.cls-50{fill:#fea627;}.cls-51{fill:#0c2c93;}.cls-52{fill:#fe980b;}.cls-53{fill:#ffb413;}.cls-54{fill:#031988;}.cls-55{fill:#ffc808;}.cls-56{fill:#fff;}.cls-57{fill:#ff8101;}.cls-58{fill:#8f1114;}.cls-59{fill:#7b010c;}.cls-60{fill:#5868ca;}.cls-61{fill:#51082a;}.cls-62{fill:#0270b3;}.cls-63{fill:#712c33;}.cls-64{fill:#cf532e;}.cls-65{fill:#8f354b;}.cls-66{fill:#ae7787;}.cls-67{fill:#d5ce5e;}.cls-68{fill:#0054ca;}.cls-69{fill:#016fd1;}.cls-70{fill:#fff16f;}.cls-71{fill:#3749af;}.cls-72{fill:#b24b0b;}.cls-73{fill:#2b3092;}.cls-74{fill:#fff188;}.cls-75{fill:#324d96;}.cls-76{fill:#936998;}.cls-77{fill:#582161;}.cls-78{fill:#7172d0;}.cls-79{fill:#b38c91;}.cls-80{fill:#66d1ef;}.cls-81{fill:#f5b7c9;}.cls-82{fill:#281890;}.cls-83{fill:#924e52;}.cls-84{fill:#ad6e2d;}.cls-85{fill:#af5031;}.cls-86{fill:#f3712e;}.cls-87{fill:#272462;}.cls-88{fill:#1ca0e8;}.cls-89{fill:#aeaed5;}.cls-90{fill:#cab8d7;}.cls-91{fill:#4c3494;}.cls-92{fill:#fab16d;}.cls-93{fill:#90526b;}.cls-94{fill:#94d0f4;}.cls-95{fill:#92b0d3;}.cls-96{fill:#af4f51;}.cls-97{font-size:124.01px;}.cls-103,.cls-97{font-family:Monotype Corsiva;}.cls-98{letter-spacing:7.28px;}.cls-99{letter-spacing:6px;}.cls-100,.cls-102{stroke:#000;stroke-linecap:round;stroke-linejoin:round;stroke-width:1.42px;}.cls-102{fill:none;}.cls-103{font-size:72px;}</style></defs><title>logo</title><path class="cls-1" d="M23,82.24c1.56-4.4,1.38-1.6-1.36-4.85C21.14,81.62,19.6,79.69,23,82.24Z"/><polygon class="cls-1" points="143.25 186.72 144.14 187.47 145.98 187.91 144.38 184.32 143.25 186.72"/><path class="cls-2" d="M277.38,221.15c0.73-4.2.92-2-1.92-4.62C274,222.13,272.19,219.67,277.38,221.15Z"/><path class="cls-2" d="M133,130.54c2.55-.37.9,2.59,2.59-1.64-4.65-1.86-.4-0.45-2.84.42Z"/><path class="cls-3" d="M277.58,211.39l2.31-2.12-4.31-2.76c0,2.07-1.08-.48.16,2.71C277.65,214.15,276.77,211,277.58,211.39Z"/><polygon class="cls-3" points="268.38 225.44 269.63 227.55 271.83 224.27 268.94 223.03 268.38 225.44"/><path class="cls-4" d="M127.8,127.22v3c0,0.3-.22,2.16-0.22,2.58,1.2-.68,2.55-1.41,4.56-2.55l-3.27-1.31,1-2.42-1.68-.67Z"/><polygon class="cls-4" points="46.69 214.04 50.15 216.19 50.03 212.82 47.74 212.07 46.69 214.04"/><path class="cls-5" d="M262,191.49c1.88,2.84,1.17,2.08,3.77,4.51l1.34-1.26a12.23,12.23,0,0,0-4.86-5Z"/><polygon class="cls-5" points="120.88 142.19 123.34 139.42 120.98 138.51 120.88 142.19"/><path class="cls-5" d="M130.79,125.67c2.12,0.85,1.51,1.33,2.22-.45,2.44,1,0,.39,2-1.61Z"/><path class="cls-6" d="M11.4,51.26c0.08-9.08-1.54-8-3.39-14.71-0.49,4.16-.68,1.48.87,6.3C10.84,49,8.87,47,11.4,51.26Z"/><polygon class="cls-6" points="105.69 186.6 109.08 184.41 109.86 183.65 109.62 182.01 106.37 182.82 105.69 186.6"/><path class="cls-6" d="M90.86,204l1,0.41,1.92-2.47c-4.48-1.95-.43.12-1.31-2.15Z"/><path class="cls-6" d="M14.89,59.34l-2.35-4c-0.74,1.85-1.11,1.28.56,1.94C12.12,59.74,12.7,57.3,14.89,59.34Z"/><path class="cls-7" d="M137.41,151l3.47-.07c2.11-.24-1,3.3,2.65-1.16,1.87-2.25.55,0.27,1.53-3.73-3,1.2-1.07-.14-3.4,1.23C138.39,149.23,139.85,148.48,137.41,151Z"/><path class="cls-7" d="M20.33,50.71l0.15-3.12,2.28,2C22,47.1,26,49.23,19.51,46,18.43,51.48,18.89,47.89,20.33,50.71Z"/><path class="cls-8" d="M187.4,116.2c4.52,0.69,3.6.37,7.34-.7,3.18-.91,4.88-1,7.41-2.77-3.08-.37-4.35.06-7.27,0.87S189.71,114.75,187.4,116.2Z"/><path class="cls-8" d="M58.75,189.22l3.1,1.38,0.3-3.33C58.92,187.44,60.62,184.94,58.75,189.22Z"/><path class="cls-8" d="M203.77,112l-1.61.69Z"/><path class="cls-9" d="M14,181.94l0.23-1.68c-3.35-2.64-.67,0-1.14-2.87-2.45-1.93-1.34,1.74-2.08-3-1-2.17-1.13-1.08-1-4.19a9.28,9.28,0,0,1,1.21-3.82c1.91-3.94,2.68-2.28,3-7.23-2.71,5.36-5.49,7.53-5.49,12.73,0,4.51-1.35-.24,1.66,5A25.77,25.77,0,0,0,14,181.94Z"/><path class="cls-9" d="M20.77,174.27c0.33-5,1-1.83-2.22-5.07C18.65,174.68,17.16,171,20.77,174.27Z"/><path class="cls-9" d="M17.53,160c3.12-2.88.69-3.5,0.19-4.66C16.36,159,15.48,156.33,17.53,160Z"/><path class="cls-10" d="M111.59,141.69c1.59,2.39.43,1.23,3.44,3.79,3.89,3.3,1.18,1.86,4,2.25l1.12-3.56c2.64-1.24,1.89-.58-0.76-1.64l-0.93,2.3c-2-1.29-1.47-.13-3-2.52l-0.59-1.63a1.47,1.47,0,0,1-.28-0.93,1.56,1.56,0,0,0-.29-1l-2.08-.26Z"/><path class="cls-10" d="M50.93,208.05c-1.31,3.16-1.19,1.94-.9,4.77l0.12,3.36c1.65-1.18,2.14-2.71,5-3.73,4.74-.24.91,0.79,4.21-2l-1.25-.67c-3.2,1.53,2.75,2.44-4.35.38A10,10,0,0,1,50.93,208.05Z"/><path class="cls-11" d="M261.4,212.85l-1.07,2.43-2.84-1.22,1.27,2.62,3.57,2.56,3.3-3.13c2.1-2.62,1-1.21,2.56-4.45l-1.87-6.28c-0.3,5.37,1,3.19-1.51,9Z"/><path class="cls-11" d="M42.82,123.45c2-.68,3.36-1.21,4.6-1.67l-2.68-.32C42.24,121.05,44.83,121.7,42.82,123.45Z"/><path class="cls-12" d="M195.53,222.66l-0.2,3.54c-14.2.93-14.36-3.19-16.9-9.68l-3.65-8.15c0.54,5.2,4.41,13.65,7.4,18,0,0,14.95,4.92,15.44-1.85C196.89,222.32,198,224.07,195.53,222.66Z"/><path class="cls-12" d="M165.06,187.48c-1.71-4.37-2.46-6.7-4.45-10.87,0.14,3.94-.5,2,1.19,6C163.31,186.14,162.74,184.92,165.06,187.48Z"/><path class="cls-13" d="M91.46,219.32c0.67,1.29-2.14.81,3.35,3.16-5.49-.75,0-0.42-3.37,1.53l4.07,1.84,3.4,1.53,5.32-6-3.44-1.18c-0.68.42,1.36,1.54-3.92,1C94.23,221,93.77,220.36,91.46,219.32Z"/><polygon class="cls-13" points="56.22 193.46 60.54 195.82 60.63 192.73 63 193.3 61.85 190.6 58.75 189.22 56.22 193.46"/><path class="cls-13" d="M149.43,241c0.33,0,.93-0.19,1,0.13l2.11,0.21c0.27,0,.74.06,1.11,0.08a13.17,13.17,0,0,0,3.74-2.1l-0.46-.57a5.34,5.34,0,0,0-2.6.49c-0.22-.41-1-1.83-1.4-2.43Z"/><polygon class="cls-13" points="76.08 209.46 79.19 210.59 81.18 205.4 79.51 204.73 76.08 209.46"/><path class="cls-14" d="M37.61,204.91l2.67,1.79,3,1.11,4.92,1.38-1.27,4.37-0.19.47,1-2L50,212.82c-0.29-2.83-.41-1.61.9-4.77l-1.6-1.56,0.46-.1c-7.65-4.95-2.75,1.38-8.33-3.65-5.14-4.63,4.27,2.47-1.68-1.3Z"/><path class="cls-14" d="M142.69,121.06c4.46,0.53,2.76.6,6-1.62-2.47-2.69-.81-1.54-5.3-3.45C142.53,118.76,142.45,119,142.69,121.06Z"/><path class="cls-15" d="M71.76,204.92c0.58,2.11,1,2.73.38,5.22-0.84-.66-5.87-5-6.39-2L68,210c0.29,0.27.89,0.28,0.89,0.81s0.65,0.61.83,0.81c0.52,0.57,1.63,1.86,2.07,2.44l1.37-2.45,2-.94,0.9-1.17,3.42-4.73,1.84-5-6.43,6.51Z"/><path class="cls-15" d="M151,216l2,0.35L157,209.1,153.18,208l-0.3-2.13-2-2.14a34.31,34.31,0,0,0-.64,6.74c0,0.28.06,2.57,0.1,2.82A8.94,8.94,0,0,0,151,216Z"/><path class="cls-16" d="M128.76,144.56c0.17-5.75-.32-7.63,4.86-7.1l-4.86,7.1h0Zm2.1-10.63-3.93,5.88-3.58-.4c3.67,1.35.58,1.1,5.29,0.09-3.22,8.07-1.33,2.4.12,5-0.68,2.7-2.66-.76.57,3.25,3.41-8.53,5.73-8.77,9.9-14.76l-7.15,1.16C129.9,135.39,132,135.07,130.86,133.94Z"/><path class="cls-16" d="M13.16,150.87a11.09,11.09,0,0,0,2.74-2.55c6.28-8.46-4.2-7.63,9.24-18.05-3.31.75-.21-1.89-4.75,2-5.72,4.93-2.31,9.62-4.24,14.45L15,146.26Z"/><path class="cls-16" d="M20.27,109.61c-5.12-6.8-8-7.57-6.18-16.44L12,90.26l0.55,4.58A16.24,16.24,0,0,1,11,99.24C17.06,106.32,13.43,105.41,20.27,109.61Z"/><path class="cls-16" d="M12.31,9l5.21-2.13,1.77-2c-0.2,0-2.84-.57-3.91-0.23C13.93,7.6,14,7.39,12.31,9Z"/><path class="cls-16" d="M27.31,128.83a31.84,31.84,0,0,0,8.22-3.77C29.33,125.68,31.89,124.43,27.31,128.83Z"/><path class="cls-16" d="M203.77,112c3.6,0.53,1.67.87,4.38-.92C204.54,110.59,206.48,110.25,203.77,112Z"/><path class="cls-17" d="M130.84,213.44l-4,11a5.22,5.22,0,0,0,2.35-1.81c0-.06,1.43-2.25,1.6-2.54-1.76,5,1.28,5.22,2.12,5.54,5.79,2.21.47,0.65,3.42-.29l-3.81-1.71c1.51-5,1-9.94.59-15.21Z"/><path class="cls-17" d="M92.17,218.34l-0.71,1c2.31,1,2.77,1.64,5.41,1.89,5.28,0.5,3.24-.62,3.92-1,1.63-2.45-.94-2.23,1.85-1.66l0,0.56c-4.67.46-3,.68-8-0.46,4.46-5.89,8.74-6.36,6.65-10Z"/><path class="cls-18" d="M49.33,206.49l1.6,1.56a10,10,0,0,0,2.8,2.13c7.09,2.06,1.14,1.15,4.35-.38a19.85,19.85,0,0,1-4.32-3c-3.24-3.28-.56-0.53-2.1-3.19l4.79-7.11,4.63,2.23-0.54-2.92-4.32-2.36C51.78,200.24,51.87,197.3,49.33,206.49Z"/><path class="cls-18" d="M51.3,164.78c-3.47,3.36,0,.6-2.54,2.09l-1.57.71c-0.14.07-.52,0.14-0.77,0.24l4.26,3.63c-0.45-8.1.68-3.39,3.63-3.14l0-3Z"/><path class="cls-19" d="M98.46,131.68l4.42,1.92L104,138l5.4,1.94,2.18,1.78,0.63-3.18-5.76-1.68-0.19-3.2c-2.76-5.17,2-1.41-2.92-7.28Z"/><path class="cls-19" d="M118.62,126.89l3.82,0.83c0.79-3.93,1.69-1.74-.49-3.33L119,123.12C119.8,125.74,120.46,122.19,118.62,126.89Z"/><path class="cls-20" d="M82.94,165.7c1.89,2.46,2.3-1.91,1,4L81.3,174.3c2,0.78-.3,4.05-1.09,6,5.27-3.26,9.46-10.27,8.92-16.19-5.18,3.45,2.2,0-2.52.67C84.15,165.17,86.27,164.28,82.94,165.7Z"/><path class="cls-20" d="M255.92,200.65l1.43-5.23,3.44,2.78c2,1.82.9,1.18,3.42,3,0-4.24.55-.21-1.32-3.94l-3.2-4.09-4.41-.54,1.66,0.42a17.28,17.28,0,0,0-1.56,4.76C255.13,199.69,255.66,199.76,255.92,200.65Z"/><path class="cls-21" d="M102.64,218.51c-2.79-.56-0.22-0.79-1.85,1.66l3.44,1.18,8-7.7c2.75-4.15,2.88-3,2.49-7.75-3.32,1.65-1.31,0-4,3.68-1.56,2.12.26,0.43-2.24,3.16C106.63,214.72,104.33,216.68,102.64,218.51Z"/><path class="cls-21" d="M84.44,234.52L83.53,236l1.15,0.62,3.39,2.09,2.92,1.9c1.79-1.19.27,0.77,2-1.81,0.33-.5,1.88-3.58,2.26-4.32,1.43-2.74,2.27-4.77,3.68-7.07l-3.4-1.53c-0.28,6.64-.39,6.25-4.09,12.05Z"/><path class="cls-21" d="M159.32,195.87c-0.12-1.75.28-1.7-.35-3.46-0.9-2.52,0-.48-1.71-3C157.9,194.21,157.16,192.4,159.32,195.87Z"/><path class="cls-22" d="M140.18,160.84l7.51,3.53c1.52-5.4.87-4.52-.2-9.31,1.49-2.08-.72-1.62-2.87-2l-2.25-.48Z"/><path class="cls-22" d="M13,177.39c0.47,2.91-2.2.23,1.14,2.87l2.95,1.8c2-2.74.1-.62,1.81-1.34,0.55-.23.05,0.63,2.87-1.33l4.33,0.79,0.89-.09,1-1.95-5.38-.76c3.78-5.11,2.36-1.33.94-4l-0.78,1.82C16.4,175,17.86,175.48,13,177.39Z"/><path class="cls-23" d="M254.6,209.72l2.89,4.34,2.84,1.22,1.07-2.43c-0.66-5.2-.54-2.73-2.8-5.95a18.67,18.67,0,0,1-2.68-6.25c-0.26-.89-0.79-1-0.56-2.79a17.28,17.28,0,0,1,1.56-4.76l-1.66-.42-3.38-.15-6.72-13.48c0.27,4.69-.79,5.23,3.36,8.33-2,.55,2,2.12-3.92-0.23l-0.46,1.15c4.34,1.73,3,.86,5.64,3.39s-0.37,2.76,5.43,2.37c-3.74,10,5.3,11.52,4.39,19.13C257.27,210.65,258.79,211.75,254.6,209.72Z"/><path class="cls-23" d="M233.95,181l-2.28,5.25-2.6-.37c-3.8-1.44-2.63-2.15-3.78,1.55,2.92,2.63,1,.71,3,3.86L227.1,187c5.37,1.5,5,1.07,7.14-4l3,5.43c2.65-2.82,1.14-2.52,6.25-1.74-1-4.76-2.37-2.82-.7-8.28l-2.82,6.91C235.1,183.32,237.77,184.36,233.95,181Z"/><path class="cls-23" d="M24.62,67.55c0-5,1.44-2.93-2.53-5.44C20.8,66.93,20.29,64.66,24.62,67.55Z"/><path class="cls-23" d="M22.74,140.25a2.59,2.59,0,0,1,.71-0.59l0.86-3.34C20.85,138.3,22.24,139.05,22.74,140.25Z"/><path class="cls-23" d="M50.49,57.38l2-3.15c-4.61,1.68-.41-3.63-2.09.8C49.33,57.77,49.13,55,50.49,57.38Z"/><path class="cls-24" d="M26.51,26.37C29.07,28.66,35.57,34,39.76,31l-9.65-2.82,0.79-3a5.13,5.13,0,0,1,.68-0.43c1.38-.6,9.31.15,13.31,2.09l-0.33-2c-6.34-2.78-9.8-4-16-2.86Z"/><path class="cls-24" d="M74.35,133.53c5.95,1.74,23.61,4.23,27.71,1.64-0.94-1.66,3.77,2-3.6-3.49l-8.4-3.63-5-1.28c6.63,1.91,6.15,2.18,11.63,6-8.44-.39-2.57,2-10.76,1.17C81.37,133.46,78.94,132.55,74.35,133.53Z"/><path class="cls-24" d="M77.68,169.44L75,174.88l4.58,1.35,1.69-1.93,2.64-4.59c1.31-5.92.9-1.56-1-4Z"/><path class="cls-24" d="M208,195.84c0.13-.57.87-4.85,1.13-6.77l3.57,1.12c-2-1.91-7.29-5.39-10.17-3.65Z"/><path class="cls-25" d="M140.26,167.8a25.07,25.07,0,0,1,1.38,2.57c1.54-3.16.77-2.2,3.13,0,6.19-.36,4,1.61,4.14,2.9l6,7.22,0.67-3.5L147,168.7l-0.07-2.81,0.79-1.52-7.51-3.53C139.25,164.46,139.85,165.25,140.26,167.8Z"/><path class="cls-25" d="M75.38,245.23l-0.26-3.72a24.67,24.67,0,0,1,.24-2.63c0.14-.5,2.73-6.24,3.08-7.12,0.47,0.37,1.31.36,1.35,1.17,0,0.56,1.85,1.78,2,2,1.66,1.52-.54.91,1.7,1.09l0.92-1.46-2.67-1.61,1.83-4.45-5.68,1.75C69.1,243.92,71,243.49,75.38,245.23Z"/><path class="cls-25" d="M86.68,224.54l4.76-.54c3.37-1.95-2.13-2.27,3.37-1.53-5.48-2.35-2.68-1.87-3.35-3.16l0.71-1-3.32-.42c-2.88,5.53-.72,1.82-2.77,2.73C86.52,225.19,85.58,221.32,86.68,224.54Z"/><path class="cls-26" d="M71.82,214c-1.51,2.63-1.46,3.51-4.93,2.87l-1.33,2.7-2.68-.21-0.37,2c3.43,6.2-.24,1.11,3.67,4.6l9.32-9-0.33-6.35-2,.94Z"/><polygon class="cls-26" points="149.65 220.61 147.17 224.86 151.53 226.55 152.94 216.35 150.97 216 149.65 220.61"/><path class="cls-26" d="M65.44,40.8c2.29-.2,1.32,2.47,2.19-3-3.77-.86-4-2.11-6.54.75Z"/><path class="cls-26" d="M20.33,50.71c2.81,0.76.4,1.84,2.43-1.09l-2.28-2Z"/><polygon class="cls-26" points="262.86 238.56 261.7 238.1 262.13 239.83 262.86 238.56"/><path class="cls-27" d="M206.44,158.92l2.58,3c2.12-.81.33-1.55,4.21,0.81l13.59,7.73,0.11-3.46-3.8-3.09c-3.16-2.22-2.88-2.44-7.52-4.41-0.71-.3-4.15-1.73-4.7-1.87-4.7-1.26-2.09-.64-3.89-0.15Z"/><path class="cls-27" d="M62.41,215.54l0.47,3.84,2.68,0.21,1.33-2.7-2.48-2.24,0-1.89,1.29-4.67C61.86,209.93,62.45,211.8,62.41,215.54Z"/><path class="cls-28" d="M108,124.25a1.43,1.43,0,0,0-1,.27c-1.65,2.26.07-.31-1.82,0.56-2.83,1.31.4-1.28-1.85,1.26,4.91,5.88.16,2.11,2.92,7.28l0.67-4.89,4,1.51c3.8-.76,1.4-1,4.94,1.4l-3,4.2-0.62,2.67,2.08,0.26c3.2-7,3.29-4,4.33-11.88Z"/><path class="cls-28" d="M136.94,152.18l-1.64,3.51-1.11,5.42c7.22-2.46,1.66-3.66,6.7-10.16l-3.47.07Z"/><path class="cls-29" d="M120.66,149.8c-1.34,1.07-.38-3.07-2.2,2.94a4.79,4.79,0,0,0-.11,2.73c0.48,1.67,2.31,2.57,3.94,3.83a13.28,13.28,0,0,0,3.42,4.29,38.37,38.37,0,0,0,5.58-1.12l1.82-4.73-1-3.44-5-3.09-0.65,3.46c-0.74-1.89,3.93-2.3.87,4.46C122.42,157.13,121.14,154.63,120.66,149.8Z"/><path class="cls-29" d="M20.77,174.27c-3.61-3.23-2.11.41-2.22-5.07,3.23,3.24,2.55.09,2.22,5.07h0Zm-9.8.12c0.73,4.75-.37,1.08,2.08,3,4.82-1.91,3.36-2.34,9.74-2.17l0.78-1.82L23,171.74c-3.49-5.34-2-2.72-3.64-3.14,3.7-2.47,1.16-1.75,6.61-1.79-0.55-2.67-.69-2.07.61-5.44l-4.67,3.26c-2.16,1.83-1.76,1.26-3.56,2.76C15.59,169.68,13.54,172.49,11,174.38Z"/><path class="cls-30" d="M37.61,204.91l2.17-3.46c6,3.76-3.46-3.34,1.68,1.3,5.58,5,.68-1.3,8.33,3.65L49.39,203l-3-2c-3.35,0-10.09-3.92-8.23-8.12-2.26-3.58-2.18-3.78-5.78-5.89,2.26,6.13,4.87.84,0.38,16.11Z"/><path class="cls-30" d="M147.69,164.37l-0.79,1.52c3,3.17,5.6,4.6,9.29,8.4-0.18-3,2.75-1.29-1.48-3l-1.07-1.45a22.37,22.37,0,0,1-2-2c-5-5.89,1.56-5.62-4.1-12.81C148.56,159.85,149.21,159,147.69,164.37Z"/><path class="cls-30" d="M60.21,225.81l3.93,1.57c-1.86,4.66-.46.39,0.49,2.87L66.19,226c-3.91-3.49-.24,1.61-3.67-4.6,1,3-1.9,1.39,1,2.57Z"/><path class="cls-30" d="M160,121.28l-2.73-.36Z"/><path class="cls-31" d="M149.14,118.29l1.15,0.46L161.6,60.41c0.42-3.85-.16-4.06.41-7.82-5.86,1.47-1.35-.34-2,8.5-0.55,7.38-4.65,21.86-6.62,30.55-0.51,2.24-.85,6.36-1.38,9.19C150.88,106.8,151.44,112.53,149.14,118.29Z"/><path class="cls-31" d="M166,119.67c5.11,0.78,6.89-.23,11.08-0.88,3.85-.6,7.12-0.57,10.35-2.59-3.11-.47-2.74-0.42-5.69.1-2.14.38-3.33,0.56-5.36,0.87C173,117.7,168.69,118,166,119.67Z"/><path class="cls-31" d="M160,121.28c4.69-.5,2.18.76,6-1.62l-5.08-.53Z"/><path class="cls-31" d="M138.52,123.41c2.5-.39.86,2.58,2.55-1.65-4.63-1.85-.33-0.6-3.16,1.23Z"/><path class="cls-32" d="M90.05,128.05l8.4,3.63,4.9-5.34c-3.29-.48-21.58-5.14-24.59-5-4.4.14-2,.32-4.1,1.26C79,124.16,87.43,124.76,90.05,128.05Z"/><path class="cls-32" d="M18.69,22.74L16.1,21.17l0.17,4C18.66,24.35,17.07,28.34,18.69,22.74Z"/><path class="cls-32" d="M22.53,96.65c1.18-3.37,1.52-1.15-.67-3.52C21.31,96.65,19.9,93.56,22.53,96.65Z"/><path class="cls-33" d="M74.35,133.53l-7.7.24L68,135.22l6.71,1.22,12.22,1.38c-2.13,2.69-2.48,2.43-5.33,4.47l1,1.85c0.29-.13.87-0.62,0.88-0.41s0.67-.33.83-0.45c0.64-.47,2.17-1.81,2.17-1.82,3.68-2.73,11.48-3.15,16.08-3.23L104,138l-1.14-4.37-4.42-1.92c7.37,5.5,2.66,1.83,3.6,3.49C98,137.76,80.29,135.27,74.35,133.53Z"/><path class="cls-33" d="M30,75.85c1.29,0.19,1.42-.61,3.73,1.69l-2.24,4.31L28.26,78.8,27.93,82c5.29,5.37.8-.67,4.09,6.28,3-7.05,5.55-6.35,7.85-12.61l-2.79,2.19a27.44,27.44,0,0,0-4-3.59C28.48,74,32.69,73.83,30,75.85Z"/><path class="cls-33" d="M68,143.92l-0.39,1c2.1,0.37,1.68-.76,1.07,1.43,3.31,0.05,1.85.34,5.41-.34,4.44-.85.83-1,6.35-0.88l1.56-2.6Z"/><path class="cls-34" d="M25.2,182.18l0.17,0.93c3,4.08.5,1.37,2.55,4.49,1.26,1.92,2.08,2.21,3.76,4.09l-1.87,4.59-1.52,4.54c3.55,2.85,1,2.4,6.6,5.07,2.82,0.49,2.73.3,5.39,0.81l-2.67-1.79-4.87-1.78c4.49-15.27,1.88-10-.38-16.11-2.1-4.1-1.31-4.33-5.32-6.93l-0.89.09Z"/><path class="cls-34" d="M51,223.47c0,1.85-1.66,3.92,4.46,4.05,0.37,0,4.38-1.58,4.75-1.72L63.56,224c-2.94-1.18,0,.45-1-2.57l0.37-2C57.65,219.18,60.65,230.92,51,223.47Z"/><path class="cls-34" d="M137.63,147.12l-4.42.85,3.72-2.47c-3.61,1-.92-4.37-4.14,3.69C139.73,148.63,133.74,150,137.63,147.12Z"/><path class="cls-34" d="M101.86,66c-0.06-3.31,2.84-1.51-1.39-3.2-0.71-5.34.56-.66-2.53-3.68A50.9,50.9,0,0,0,101.86,66Z"/><path class="cls-34" d="M80.44,252.6c-2-4.82-1-.95-0.5-3.65l-2.26-1.9C78.49,251.48,76.48,249,80.44,252.6Z"/><path class="cls-35" d="M26.57,161.36c-1.3,3.37-1.16,2.77-.61,5.44l1.48,0.33c2.8-6,2.82-4.81,9.08-6.38l0.88-.25,1.8-.53c1.09,4.07-1.22,1.4,2.51,4.5l3.37-.59c1.6-4.2,1.59-4.84,1.21-8C39.91,153.82,31.88,158.36,26.57,161.36Z"/><path class="cls-35" d="M53.68,163.23c1.1,2.39-3.71,2.35,1.82,1.92,7.33-5.49,2-2.59,1.75-3.73Z"/><path class="cls-36" d="M149.43,241L147.26,247c-5.15,9.37-3.58,9.58-10.26,17.48,0.74,2.84-3.73,1.45,2.17,2.6,4.39,0.88,1.18,1,3.36-1.72l-1.76-.7c1.18-.19-1.29,2.8,1.83-1.46,2.81-3.84,11-17.68,11-21.83-0.37,0-.85-0.06-1.11-0.08l-2.11-.21C150.36,240.76,149.76,241,149.43,241Z"/><path class="cls-36" d="M127.8,127.22c-2.47,1.19.41-1.62-2.86,1.62a39.93,39.93,0,0,0-2.43,3.55c-1.78,3.3-2,3.21-1.53,6.12l2.36,0.91,3.58,0.4,3.93-5.88c1.77-1.56,1.28-.84,2.09-3.39l-0.25-1.22-0.57.89c-2,1.15-3.36,1.88-4.56,2.55,0-.41.2-2.27,0.22-2.58v-3Z"/><path class="cls-37" d="M130.84,213.44l2.29-5c2.07-5.42,3.47-11.23,7.11-15.58-0.19.82-.67,5.16-0.84,6.78-0.2,1.82-.33,7.38,1.15,6.56,0.35-.2.7,0.87,1.59,1.39l2-20.09-0.89-.76c-1.71,4.37-.34,2.2-2.81,4.64-0.31-1.41-.63-0.75-0.29-3.16,0.5-3.52,3.51-6.78,1.86-9.56C137.89,191.89,131,200,130.84,213.44Z"/><path class="cls-37" d="M109.62,182l0.24,1.64a32.9,32.9,0,0,0,6.92-5.33,37.48,37.48,0,0,0,3.44-3.61c3.11-6.18,2.18-1.34-.18-4.18-5,2.29-1.38.31-5.28,5.71C112.93,178.76,111.3,179.91,109.62,182Z"/><path class="cls-37" d="M144.38,184.32l1.6,3.59a4.77,4.77,0,0,1,.89,2.07c0,0.16.25,1.38,0.6,2.53,1,3.22,1,3.42,3.09,5-0.47-3.26-1.14-4.12-1.48-8.44-0.13-1.61-.11-3.46-0.34-4.58-1.15-5.56-.05-0.77-1.56-3.75l-1,3.78Z"/><path class="cls-38" d="M232.14,215c-0.33-5.89,2.65-10.25,7.72-4.86,4,4.28,4.15,7.85.68,12-5.83-1.08-5.36-2.57-8.39-7.15h0Zm-2-1.57c1.19,1.58.86,0.85,2,1.57,0.53,4.94,1.53,6,7.2,8.8a55.37,55.37,0,0,0,5.76-4.38l-1.88-5.89c6.58,4.46-1,3.42,12.72,8.88l5.3-3.23c-1.33,8.75,4.1,11.26,1.62,19.36,4.06,0.49,1.63.05,5.29-1l0.83-.25,2.57-.4c-3.35-.75-4.2-0.84-6.48,0,0.53-3.47.54-1.43,0.14-4.15l-0.8-3.1c0-.12-0.08-0.47-0.1-0.7a14.49,14.49,0,0,1-1.26-2.87c-0.13-.41-0.56-2.35-0.62-2.69a11.65,11.65,0,0,1-.12-4.09l-3.57-2.56L257,220.39c-5.11-.59-5.74,0-8.86-4.17L243,207.95c-2.18,5.46-1.61-.74-7.24-1.5C231.82,205.92,231.9,209,230.11,213.45Z"/><path class="cls-38" d="M195.53,222.66c1-5.22-.55-4-1.61-9,3.83,2.86,2.56,3.59,5,7.47,5.34,8.41,6,.66,6,0.64l-3.94.31c-3.31-6.16-5.72-10.48-10.2-15.34l-0.11.11c-0.73,3.58-1.48-1.24.16,4.27,0,0.15,1.4,3.2,1.75,4C194.17,218.5,194.36,219.65,195.53,222.66Z"/><path class="cls-38" d="M209.6,228c-4.84-1.21-1.39.24-1.73-2.9,4-1.38,2.17-1.87,7.17-.56l-4.22,4c11.61,0.26,1.78-14.58-5.14-.72C211.81,230.2,207.37,228.44,209.6,228Z"/><path class="cls-38" d="M160,176.1c-1.36-5.22-3.23-8.71-4.88-12.51-0.45,4.23,0,3.26,2.91,9.14C159.54,175.78,157.91,173.43,160,176.1Z"/><path class="cls-38" d="M174.77,208.37c-1.56-2.51-2-3.8-4.09-6.78C171.39,205.53,171,206.36,174.77,208.37Z"/><path class="cls-39" d="M209,161.9c-2.35,5.87-4.68,13.32-9.3,17.18l-6.18-2.83a1.46,1.46,0,0,1,.69.84,1.19,1.19,0,0,0,.77.79c3.3,2.32.68,0.84,7.4,3.38,2.6-8.88,4.32-7.15,7.46-12.66l9,10,2.07,3.07c2.4,3.17,2.38,2.3,4.38,5.83,1.15-3.7,0-3,3.78-1.55-5.26-11-10.42-8-18-21.39,1.21-.32,1.16-1.18,2.11-1.81C209.34,160.34,211.13,161.08,209,161.9Z"/><path class="cls-39" d="M42.25,148.71c2.92-2.78,2.85-3.23,3-6.73-2.74-2.49-3.38-1.31-3.64-1.28-1,3.33-.69,4.38-3.09,7Z"/><path class="cls-40" d="M17.2,187.25c-1.51,3.49-2.73.37,2.24,4.87,6.7,6.06.34,4.88,2.75,12.19,1.16,3.51,4.89,5.59,9.43,7.41-1.84-3.88,4.56-.84-2.54-3.68a32.74,32.74,0,0,1,5.12-.43l0.69-1.72c-5.58-2.67-3-2.22-6.6-5.07l1.52-4.54-4.28-2.74c-1-3.57-.7-2.69-2.52-5.57C19.82,189.6,20,189.37,17.2,187.25Z"/><path class="cls-40" d="M79.94,248.95c-0.48,2.7-1.51-1.17.5,3.65a1.5,1.5,0,0,1-.72,1l0.08,0a10,10,0,0,1,1.77.58c4.34,1.77.1,0.63,3.69,0.26l0.26-.51c1.09-10.76-3.58-2.38,4.82-14.11l-2.27-1.23-3.39-2.09c0.16,0.29.35,0.73,0.43,0.9l0.44,0.92,0.91,1.88C80.61,246.43,86,238.92,79.94,248.95Z"/><path class="cls-41" d="M69.1,38.38L68.95,45l3.95,2.16c0.92,0.27,4.38.11,7.11,1.68,5.33,3.06,0,1.93,7.79,2.14,2.81,2.31,4.94,4.4,7.83,7.17-0.76-4.15.87-.75-1.95-5a33.39,33.39,0,0,0-2.9-3.46c-2.78-2.9-5.24-4.79-8.14-7.45-4.58,2.24-7.7-3.68-12.19-5.69Z"/><path class="cls-41" d="M262.33,219.24a11.65,11.65,0,0,0,.12,4.09c0.05,0.34.49,2.28,0.62,2.69a14.49,14.49,0,0,0,1.26,2.87l0.79-5.43,3.27,2,0.57-2.41,2.88,1.24-3.64-12.61c-1.53,3.24-.45,1.84-2.56,4.45Z"/><path class="cls-41" d="M23,188c1.82,2.88,1.53,2,2.52,5.57l4.28,2.74,1.87-4.59c-1.68-1.88-2.5-2.16-3.76-4.09-2-3.13.47-.41-2.55-4.49C22.79,186.53,23.39,184,23,188Z"/><path class="cls-42" d="M157.38,239.28a13.17,13.17,0,0,1-3.74,2.1c0,4.15-8.22,18-11,21.83-3.12,4.26-.65,1.26-1.83,1.46l1.76,0.7c4.49,2.68,1.43-2.23,15.67-12.46,2.92-1,0,1.11,2.53-3L156,251.86C158.95,246.46,164,239.8,157.38,239.28Z"/><path class="cls-42" d="M117.24,104.14c1.27,3.81.65,4.35,3.81,7.22l-1.12-6.07a25.46,25.46,0,0,1,3.38-2.66c1.54-2,2.32-.93,1.19-3.29s-1-1.42-4-3.17h-1.71c-0.08,0-.69.24-0.67,0s-0.49,0-.73.06C117.87,100.19,118.66,100,117.24,104.14Z"/><path class="cls-42" d="M126.61,119.81L125,123.7l3.12,2.12,1.68,0.67c1.57,0.81,1.15.95,1-.82l4.2-2.06c0.26,0.1.79,0.05,0.78,0.31s0.64,0.2.76,0.19c2.56-.3.47,0.22,2-0.7l-0.61-.43c-3.78-2.89-3-1.72-5.83-2.15l-2.78-3.06C128,122.62,130.39,120.39,126.61,119.81Z"/><path class="cls-43" d="M59.11,172.66a52.85,52.85,0,0,1,13.52-3.47c-2,4.27-3.21,4-6.54,7-5.75,5.35-4.48,3.68-6.93,3.37-1.39-3.93-1.28-2.57,0-6.95h0Zm-4.8-4.35c-2.94-.25-4.08-5-3.63,3.14l-2.71,6,1.53,1,3-8.18c5.48,3.08,4.36,1.08,3.62,7.15-4.4.16-1.75-.07-4.61,1.25,4.16,2.7,4.71,5.19,3.73,10.42l2.73-7a7.41,7.41,0,0,1,.62-1c7.55,0.57.88-.19,5.53,2.09,2.12-1.81,8.37-10.22,12.7-13.53-2.73-1.87-5-.19-0.05-4-5.85-.06-6.24,1.48-11.17,2.75-2.19.56-3,.68-5.25,1.25-3.17.82-1.51,1.18-5.46,0.31Z"/><path class="cls-43" d="M121.92,225.08l-3.17,2.82,6.9,2.76c0.12-5.1-1.13-1.09,1.29-4.39Z"/><path class="cls-44" d="M74.93,125.49c-3.22,1.56-15,1-11.94,4.11a2.4,2.4,0,0,0-1.36,1.09l-2.22,1.86,7.24,1.22,7.7-.24c4.59-1,7-.07,11.55.4,8.19,0.85,2.32-1.56,10.76-1.17-5.48-3.81-5-4.09-11.63-6Z"/><path class="cls-44" d="M68,135.22l-8.85.9c2.93,2.48.76,0.69,1.59,4.1-2.95.63-3.27,0.78-5.62,2.7-6.29,5.11-3.38.48-5,4.37,6.17-.48,12.49-3.3,17.47-2.33l0.39-1c3-3.23,5-3.94,8.78-4.7-0.59-2.34,2.51-.38-2-2.78Z"/><path class="cls-44" d="M27.45,167.13c-0.41,2.35-2.11-.66.7,3.11,4.4,1.6,4.36.62,7.35-1,5.62-3,4.27-2,6.22-4.77-3.73-3.1-1.42-.43-2.51-4.5l-1.8.53-0.88.25C30.26,162.32,30.25,161.11,27.45,167.13Z"/><path class="cls-44" d="M29.6,176.67L30.23,177l4.83,2.68L36,177.35c0.69-2.27-1.23-.22,2.44-2.65-0.7-2,2.94-1.79-1.73-1.55C32.41,173.36,32.82,173.39,29.6,176.67Z"/><path class="cls-44" d="M26.2,37.13l4.31,3.38c1-9.19-1.78,0-.88-6.68l-3-.54Z"/><path class="cls-45" d="M79.61,176.24L66.92,196.84,63,193.3l-2.37-.57-0.09,3.09,0.54,2.92c1.16,0.92.81-.36,1.33,1.67a5.06,5.06,0,0,1-.12,3.61,44.85,44.85,0,0,1-3,6.45c-3.3,2.77.53,1.74-4.21,2l7.3,3.08c0-3.73-.56-5.61,3.33-7.44,0.52-2.94,5.55,1.38,6.39,2,0.59-2.49.21-3.11-.38-5.22l-3.47-1.29c1.37-6.36,5.93-12.25,9.17-17.3l2.76-6c0.79-2,3.05-5.23,1.09-6Z"/><path class="cls-45" d="M142,178.63c1.65,2.77-1.36,6-1.86,9.56-0.34,2.42,0,1.75.29,3.16,2.47-2.43,1.1-.27,2.81-4.64l1.14-2.4,1.74,0.15,1-3.78L146.39,174l-1.63-3.67c-2.36-2.19-1.58-3.15-3.13,0C141.94,173,142.63,175.47,142,178.63Z"/><path class="cls-46" d="M155.15,163.47c-1.28-4.57-3.54-8.65-3.06-12.44,5.91,2.56,9.25,7.26,13.88,11.65,2.87,2.73,5,3.09,7,6.55,2.21,3.87.2,3,3,6.37a26.28,26.28,0,0,0,3,6.29c2.77,4.42,1.85.92,2.57,6.07,2.54,1.94,4.4,5.54,5.52,8.59,2,5.55.45,5.24,3.53,10.34l0.11-.11c0-3.76-.21-5.8-2-9-6-11-3.48-12.17-6-17.54-2.39-5.11-3.08-1.48-4.45-9.88l9.23,5.57c-0.33-.81.21-1.85-1.71-1.55l3.06,0.56c-2.84-4.55-18.34-9.6-34.19-24.66l0.88-2.67a1.4,1.4,0,0,0-1.05.32c-0.35.45-1.66,0.54-2,.64a15.42,15.42,0,0,1-2.55.83l2.33,10.41C153.68,162.31,152.72,161,155.15,163.47Z"/><path class="cls-46" d="M202.5,186.54c2.88-1.74,8.15,1.75,10.17,3.65,4.08,4.25,8.43,6,9.46,12.06-1.92,4-2.63,2.79-5.3,7.1l-3-2c-0.06,3.46-2,.3,1.05,4.06,3.15-.81,7.41-4.73,9.22-7.91,2.8-4.93,5.68-3.85,5.7-7.11,0-4.8.06-.89-2-3.89-0.13,5.83.9,2.2-2,7.19-7.06-2.15-5.23-4.83-10.29-9.54a42.78,42.78,0,0,0-13.14-8.86l3.33,2.82C199.48,185.39,202.5,186.51,202.5,186.54Z"/><path class="cls-46" d="M206.24,198.36l3.48,9.24c1-2.49.11-2.25,2.41-1.33l-4.24-8.55Z"/><path class="cls-46" d="M170.74,200.44c-2.55-5.4-2.89-7-5.32-12.45,0.2,4.28-.11,2.64,1.62,6.68S167.83,197.37,170.74,200.44Z"/><path class="cls-47" d="M140.88,151c-5,6.49.53,7.69-6.7,10.16l1.11-5.42c-2,.12-0.82-2.23-2.19,2l-1.82,4.73a38.37,38.37,0,0,1-5.58,1.12,13.28,13.28,0,0,1-3.42-4.29c-0.66.52-1.55,1.66-2.36,1.94-3.25-3.35-2.8-2.24-3.56-6.83l-2.92-.82,1.59,10c9.94-.84,1.92-0.41,9.27,2.06,2.6-.59,2.93-0.8,6.83-0.24l-7,18.2-4.61,7.66-1,6.1,1,4.92a12.08,12.08,0,0,0,.5,1.26l1.63-5.78,2.31-4.48c-2.7-2.88,8.67-24.27,11.17-27.45,1.23-.05-0.35-1,2.57.32,0.09,0,2.32,1.55,2.53,1.69-0.4-2.55-1-3.34-.08-7l2.2-8.28,2.25,0.48c0.26-4.88,3.74-3.39.44-7-1,4,.34,1.48-1.53,3.73C139.84,154.26,143,150.73,140.88,151Z"/><path class="cls-47" d="M30.23,177l-0.63-.35L28,178.14l-1,1.95c4,2.6,3.22,2.83,5.32,6.93,3.6,2.11,3.53,2.31,5.78,5.89L51.4,178.19l-1.91.24-1.53-1a58.53,58.53,0,0,1-6.8,5.51c-3.26,2.44-2.44,2.67-6.09,3.38C31.21,184.09,30.89,182,30.23,177Z"/><path class="cls-47" d="M189.22,153L188.88,157c3,3.14,3.45,2.48,7.63,2.25,3.24-2.38,4.7-2.08,9.93-.3l0.59-1.47c-9.46-3.78-2.85-.6-15,0.7a16.58,16.58,0,0,1-1.27-2.36Z"/><path class="cls-48" d="M19.29,5l-1.77,2L20,8.14c-2,2.4-4,4.44-6.05,3.17,2.48,5.34-.49.41,0.57,4.59,0.55,2.18-3,.53,3.31,2.76L16.1,21.17l2.58,1.57c3.17-2-1.43-4.14,3.7-1-4.38-2.06-2.29-1.44-3.51-3.56L34.55,18.6l-5.41-3.87c4.37,0.22,2.4.92,5.82-2.18-1.32-2.41-.58-2.41-3.61-2.78L47,16c0-2.77,2.16-1.92-6-5.11C38.48,9.9,24.95,2.13,19.29,5Z"/><path class="cls-48" d="M44.55,24.88l0.33,2,1.52,2.3L44.75,31.9c2.34-1.24,0,.58,2.07-1.69L49,27.53c2.11,1.7,3.68,1,3.16,5.55-0.76,6.58,0,.67-1.36,2.85,8.46,2.29,2.17,1.2,3.41,4.36-5.67-1.28.32-1.94-3.79,1.32-0.2.16-.51,0.6-0.8,0.86l1-2.25c4.52,1.8.84-.5,2.21,3.48l2.82-1.27c1.81-7.79.82,1.56,3.41-4.36,1.47-3.37.33-2.51-1.73-5.28l3.33-.72c5.52-1.66,1.27-.93,2.21-1A48.45,48.45,0,0,1,68.26,33l2.22-1.19c0.33-.48.82-0.29,1.15-0.56-4.45-2-5-4.39-8-7.08-2.54-2.29-9.12-6.19-12.76-7.89,1.39,4.24-2.91-.11,2.09,4.45,4.76,4.34,3-2,8.54,7.44-1.46-.67-2.58,1.4-5-2.53C54.73,26.69,54,27.13,52.44,28Z"/><path class="cls-49" d="M134.67,242.84c-1.67,7.4-3.23,9.93-9,5.09,2.53-11.08.91-20.24,10.11-18.53,2.1,3.91,1.41,5.47-1.1,13.44h0Zm1.69-17.49c-2.95.95,2.37,2.5-3.42,0.29-0.85-.32-3.88-0.56-2.12-5.54-0.18.29-1.55,2.48-1.6,2.54a5.22,5.22,0,0,1-2.35,1.81l0.08,1.82c-2.42,3.3-1.17-.72-1.29,4.39-1.09,7.66-2.34,12.25-7.57,18.54l-7.7-2.07-0.67-3.3c-0.42,2.67-.64,2.21-0.36,4.26,4.59,1.4,4.18.33,9.68,2.53,3.53-5.06,4.36-7.56,7.14-14.53l1.15,0.46c-0.77,1.92-3,10.54-2.82,11.77,0.76,4.52,6.66,3,9.05,2.75,2.3-5.75,2-8.45,4.83-15.45l1.15,0.46c-3.32,8.32-1.34,6.13-2.3,12.45l7.41,1.42c-5.19,13.71-3.28,8.25-6.57,11.65-3,3.14-.24,1.7-4,4.07-1.87,1.19-2.33.84-4.68,2.45,3.95,0.6,6.73.42,9.78-1-5.91-1.15-1.43.24-2.17-2.6,6.68-7.9,5.11-8.11,10.26-17.48l-1.35-.54L145,248.14l-4.66.11c-3.08-5-1.91-4.05-.74-10.47,0.62-3.39-.39-7.19,3.88-9.36L147,225.7c-0.19-.34-0.46-0.74-0.62-1-3.34-4.82-1.82-.91-2.94-4.88a72.27,72.27,0,0,1-1.21-10.13l-3.86,15.42Z"/><path class="cls-49" d="M93.42,241.27a39.83,39.83,0,0,1,10.63-15.39l8.39,3.81c-1,4.53-6.92,11.31-10,16l-9-4.38h0Zm10.8-19.92-5.32,6c-1.41,2.3-2.25,4.33-3.68,7.07-0.39.74-1.93,3.82-2.26,4.32-1.7,2.58-.18.62-2,1.81-0.7,3.58-.26,4.13-1.45,7.63-0.19.55-1.19,3-1.48,3.46-1.57,2.58-.54,1.48-2.54,2.35l-0.26.51,3.56,1.42c-0.2-3.72,3.13-8.13,2.76-13.6,5.79,2.31,5.93,2.52,9.92,5.3,2.55-2.16,6.9-7.25,8.52-11.3l1.15,0.46c-2.36,5.92-1.44,4.3-.63,6.43l0.35-2c1.54-6.81,3-9.19,7.85-13.37l3.17-2.82c-4.43-1.31-3.69-1.26-7.63-1.35s-2.68.22-7.11-1.26l1.61-3.24,3.44-5.58Z"/><path class="cls-49" d="M55.24,189.06l-8.87,12,3,2,0.4,3.38-0.46.1c2.54-9.19,2.45-6.25,6.89-13l2.53-4.24c1.87-4.28.17-1.79,3.39-1.95l2-4.13c-4.65-2.27,2-1.51-5.53-2.09a7.41,7.41,0,0,0-.62,1Z"/><path class="cls-49" d="M187.6,175.95A94.22,94.22,0,0,1,199,185.72c4.14,4.23,5.1,8.89,7.27,12.65l1.65-.64,0.1-1.88-5.48-9.31s-3-1.14,3.22-2.45l-3.33-2.82c-6.72-2.55-4.1-1.07-7.4-3.38a1.19,1.19,0,0,1-.77-0.79,1.46,1.46,0,0,0-.69-0.84L188.94,175l-3.06-.56C187.81,174.1,187.27,175.14,187.6,175.95Z"/><path class="cls-49" d="M76.76,165.64c-4.92,3.78-2.68,2.1.05,4l0.87-.17,5.26-3.74c3.33-1.42,1.21-.53,3.67-0.89,4.72-.7-2.66,2.78,2.52-0.67l2.13-2.2,1.07-2.73-2.39.06c-3.72,2.16-2.75,2-6.83,3.33A42.77,42.77,0,0,0,78.9,164C77.18,164.77,77.72,164.46,76.76,165.64Z"/><path class="cls-49" d="M222.69,222l-3-1.55,5.46-9.34c4.29,3.15,4.42,4.37,3.51,9.79C225.41,222.38,226.64,222.13,222.69,222Zm0,0c4.64,2.85,5.65,1.1,8.58-1.38-0.91-4.24-1.71-2.48-1.16-7.15-3.17-3.45-4.76-5-7.84-.47-2.48,3.62-3.88,6.26-3.68,9.24C225.13,224.83,219.82,223.08,222.69,222Z"/><path class="cls-49" d="M244,208.3l1.76-4.79c6.5,2,5.55,2,8.84,6.21-1.11-3.2-2.11-5.7-5.42-6.74-1.91-.6-3-0.59-4.46.29C239.23,206.54,243.69,207.82,244,208.3Z"/><path class="cls-49" d="M204.92,221.81c1.79-.09,1.41.72,3.06,0.18,4.15-6,3.51-4.35,4.6-11.53l-2.38-.95C212.25,216.22,210.89,217.43,204.92,221.81Z"/><path class="cls-50" d="M133.13,208.43c0.41,5.27.93,10.24-.59,15.21l3.81,1.71,2-.2,3.86-15.42a72.27,72.27,0,0,0,1.21,10.13l1.81,0.72c-0.53-8.32,2.62-2.73,1.85-10.27-0.59-5.75-2.26-4,.42-9.46,0,5.26-.86-0.84,2.57,3.37-0.75-4.84-1-2.27.48-6.73-2.08-1.55-2.1-1.75-3.09-5-0.35-1.14-.55-2.36-0.6-2.53a4.77,4.77,0,0,0-.89-2.07l-1.84-.44-2,20.09c-0.89-.51-1.24-1.58-1.59-1.39-1.48.82-1.35-4.73-1.15-6.56,0.18-1.62.66-6,.84-6.78C136.6,197.2,135.2,203,133.13,208.43Z"/><path class="cls-50" d="M63.07,50.42l-0.91,1.86C67.48,57,79.21,64.86,85.81,65.81l1.71-.37c2-4.37,1.42-1.33.76-4.15-3.67-3.92-7.47-8.44-13.64-11.06l-9.35-3.17,0.1-.09Z"/><path class="cls-50" d="M68.64,146.39c-6.11,3.64-13.52.84-19.69,8.09l0.84,4.64c5.14,1.82,11.93-2,15.87-3.9,5.66-2.73,10-4,14.75-10-5.52-.09-1.91,0-6.35.88C70.49,146.73,71.95,146.44,68.64,146.39Z"/><path class="cls-50" d="M64.11,183.14l-2,4.13-0.3,3.33L63,193.3l3.92,3.54,12.69-20.61L75,174.88l2.66-5.45-0.87.17C72.48,172.92,66.23,181.33,64.11,183.14Z"/><path class="cls-50" d="M31,131.84l-2.15,7.22c3.19,1.1,16.55-2.9,20.24-4.64C56.39,131,52.92,129,52.92,129,47.76,123.36,36.39,130.65,31,131.84Z"/><path class="cls-50" d="M109.21,201.09c7.55,0.79,1.77,0,3.54,1.6-1.67,4.08-1.84,6.52-4.2,9.47-2.16,2.71-3.6,3.75-5.88,6.91l0-.56c1.69-1.83,4-3.79,5.81-5.77,2.49-2.72.67-1,2.24-3.16,2.72-3.7.7-2,4-3.68,0.39,4.72.26,3.6-2.49,7.75l-3.44,5.58c1.17,2.07-3,1.76,4.57,2.84,5.09-4.5,4.57-10.08,5.52-16l-1.35-.54a9.78,9.78,0,0,0-2.63,1.22l3.69-9.41,1-6.1Z"/><path class="cls-50" d="M125.66,247.93c5,2,1.13-3.17,5.49-7.16,3.25,0,1.76-.23,3.52,2.07,2.52-8,3.2-9.53,1.1-13.44C126.57,227.69,128.19,236.85,125.66,247.93Z"/><path class="cls-50" d="M59.11,172.66c-1.23,4.37-1.34,3,0,6.95,2.45,0.32,1.19,2,6.93-3.37,3.33-3.1,4.52-2.78,6.54-7A52.85,52.85,0,0,0,59.11,172.66Z"/><path class="cls-50" d="M77.76,216.93c-1.64,4.4-5.51,6.94.89,8.76l4-5.95Z"/><path class="cls-50" d="M64.46,212.76l0,1.89,2.48,2.24c3.46,0.64,3.42-.24,4.93-2.87-0.44-.59-1.55-1.87-2.07-2.44-0.19-.2-0.83-0.3-0.83-0.81S68.32,210.23,68,210l-0.22,4.9Z"/><path class="cls-51" d="M275.46,216.52c2.84,2.67,2.65.42,1.92,4.62-5.19-1.48-3.34,1-1.92-4.62h0Zm-10.29-15.31,1.15,4.17,1.87,6.28,3.64,12.61a16.21,16.21,0,0,0,1.31,3.46c0.15,1,.08,3.91.25,5.81,1.62-2.74,1.82-1.8,4.85-1.59l3.33,1.36,2-3.88c2.13-4.91,1.89-8.53,2.14-11.17,1.87-4.68.51-.62-0.69-1.62l-4.19-6.36c-0.19.72-.68,3.28-0.82,3.68-0.86,2.38,1-.2-1.17,1.44-2-2-1.37-.53-1.21-4-0.81-.37.06,2.76-1.85-2.17-1.24-3.19-.16-0.65-0.16-2.71l-4.3-2.43c-1.27-6.2,3.26-1.51-3.91-5.58C265.37,199,267.14,198.83,265.17,201.21Z"/><path class="cls-51" d="M50.15,216.18c-2.29,2.47,1.07,1.63-3.5,2.23,5.76,3.83,2.35,2.24,3.2,4.59L51,223.47c9.65,7.45,6.65-4.3,11.89-4.1l-0.47-3.84-7.3-3.08C52.28,213.47,51.79,215,50.15,216.18Z"/><path class="cls-51" d="M80.11,237.6c2,2.59,2.46-.62.55,4-3.61-2.13-3.25-1.52-.55-4h0Zm-4.73,7.63-0.85-.33,3.14,2.16,2.26,1.9c6.09-10,.67-2.51,6.51-8.65l-0.91-1.88-0.44-.92c-0.08-.17-0.27-0.61-0.43-0.9L83.53,236c-2.24-.18,0,0.43-1.7-1.09-0.19-.17-2-1.39-2-2,0-.81-0.89-0.8-1.35-1.17-0.35.88-2.94,6.61-3.08,7.12a24.67,24.67,0,0,0-.24,2.63Z"/><path class="cls-51" d="M31.62,211.72c-1.08,2.75,3,2.53,3,2.54,5.61,5.12,1.25,1.34,2.48,1,0.09-2.92.49-1.41-.32-3.81-1.09-3.24.46-.54-2.59-3.83a32.74,32.74,0,0,0-5.12.43C36.19,210.87,29.78,207.84,31.62,211.72Z"/><path class="cls-52" d="M82,146.28c-6,6.11-4.63,5.27-11.6,8.8-5,2.55-8.34,4.11-13.14,6.33,0.23,1.14,5.57-1.76-1.75,3.73-5.52.44-.72,0.48-1.82-1.92l-2.38,1.55,3,0.54,0,3,0.57,1.64c4,0.87,2.3.51,5.46-.31,2.22-.57,3.06-0.69,5.25-1.25,4.93-1.27,5.32-2.81,11.17-2.75,1-1.18.42-.87,2.15-1.67a42.77,42.77,0,0,1,4.2-1.39c4.08-1.36,3.11-1.16,6.83-3.33l1.16-2.71c2.26-3.28,1.64.13,1.37-3.42-4.15,5.1.23,1.12-5.53,0.46,4.2-9,4.8-4.84,9.66-11.88C86,146.24,85.11,155.87,82,146.28Z"/><path class="cls-52" d="M146.39,174l0.78,6.67c1.51,3,.42-1.81,1.56,3.75,0.23,1.12.22,3,.34,4.58,0.34,4.33,1,5.18,1.48,8.44,5.33,0.07,1.45.39,2.24,3.39,1.07,4.05.21,2.26,0.09,5l0.3,2.13L157,209.1c4.19-3.26,4.33-9.65,2.33-13.22-2.16-3.48-1.42-1.66-2.05-6.44-0.3-2.65-2.06-5.8-2.38-9l-6-7.22C145.9,172.79,147.47,171.81,146.39,174Z"/><path class="cls-52" d="M38.14,192.91c-1.86,4.2,4.89,8.15,8.23,8.12l8.87-12c1-5.23.44-7.72-3.73-10.42l-0.11-.45Z"/><path class="cls-52" d="M124.29,165.6L120,170.53c2.37,2.83,3.3-2,.18,4.18a37.48,37.48,0,0,1-3.44,3.61,32.9,32.9,0,0,1-6.92,5.33l-0.79.76,2.42,0.88-1,2.25,2-.91c0.24-.15,1.26-1,1.57-1.17l2.39-1.13a6.64,6.64,0,0,1,1-.1c-1.18,6.64-4.23,3.05-1.49,7.05,5.25-3.29,3.78-5.64,8.17-7.71l7-18.2C127.22,164.81,126.9,165,124.29,165.6Z"/><path class="cls-52" d="M40.35,74.19L63,78.61c0.58-5.71-1.9-5.21-5.16-7.46,5.19,0.36.22,0.3,3.42-1.65-4.8-2.41-9.1-5.25-14.6-5.48Z"/><path class="cls-52" d="M168.16,184.7l1.46-4.9c4.83,2.74,5.68,4.16,7.78,8.54,1.16,2.42,1.52,2.49,2.44,4.62l4.75,15.29c2.33,6.44,5.28,3.11,2.26,11.46,0.33-.17,1.93,3.52,3.67-4.79a4.8,4.8,0,0,0-.66-4.14c-1.92-3.9-3.19-2.15-4.81-6.79-5-14.16-2.14-5.28-3.21-16.4l-0.21.38c-0.73-5.15.19-1.65-2.57-6.07a26.28,26.28,0,0,1-3-6.29l-10.74-1.38C165.6,182.51,168.16,184.7,168.16,184.7Z"/><path class="cls-52" d="M124,193.24l-2.31,4.48-0.83,15.48c0.66-2.85,3.07-6.69,3.93-9.18,5.6-16.17-2-3.12,9.94-22.2,5.22-8.37.34-10.84,0.15-11.07C130.46,174.75,125.2,187.07,124,193.24Z"/><path class="cls-52" d="M196.51,159.21c-4.19.23-4.61,0.89-7.63-2.25l-0.79,3.62c-4.73,2.91.64-.25-3.87,1.67-2,.86-0.68.05-2.29,1.22C188.6,177.5,211.2,167.35,196.51,159.21Z"/><path class="cls-52" d="M110.9,241.27c3.2,1.28,1.72-.31,4.15-2.37,4.2-3.54-.82,1.43,4.15-2.1-1.46,6.94-.2,7.38-1.12,12.4,5.24-6.3,6.49-10.89,7.57-18.54l-6.9-2.76C113.93,232.08,112.44,234.46,110.9,241.27Z"/><path class="cls-52" d="M26.2,37.13c0.41,3.44-1.68.93,1.89,4.19a9.89,9.89,0,0,0,4,1.77c4.84,1.44,3.47-.1,8,2.72,0.32-.16,1-0.63,1-0.41,0,0.67,3.8-2,3.25-5C41.65,36.13,33,33.13,28,32.12l-1.35,1.17,3,0.54c-0.9,6.72,1.84-2.5.88,6.68Z"/><path class="cls-52" d="M27.64,54.37c7.4,3.55,10,5.83,15.66,1.61,0.08-7.06-3-7.09-11.32-9.43l-4-.6C28.23,49.42,30.35,52.36,27.64,54.37Z"/><path class="cls-52" d="M86.68,224.54a23.25,23.25,0,0,1-3.08,3.92l-1.83,4.45,2.67,1.61,7,3.38c3.7-5.8,3.81-5.41,4.09-12.05L91.44,224Z"/><path class="cls-52" d="M77.45,186.33c-3.23,5.06-7.79,10.94-9.17,17.3l4.51,0.7c4.86-8.67,2.57-6,5.87-4.74L78,194.78l6.86-12.6C79.23,184.34,82.3,183.46,77.45,186.33Z"/><path class="cls-52" d="M232.14,215c3,4.58,2.57,6.08,8.39,7.15,3.47-4.16,3.34-7.73-.68-12C234.79,204.77,231.81,209.13,232.14,215Z"/><path class="cls-52" d="M255.92,200.65a18.67,18.67,0,0,0,2.68,6.25c2.25,3.22,2.14.75,2.8,5.95l3.41,1.56c2.47-5.84,1.21-3.65,1.51-9l-1.15-4.17-1,0c-2.52-1.86-1.37-1.22-3.42-3l-3.44-2.78Z"/><path class="cls-52" d="M58.08,209.8l1.25,0.67a44.85,44.85,0,0,0,3-6.45,5.06,5.06,0,0,0,.12-3.61c-0.52-2-.17-0.75-1.33-1.67l-4.63-2.23-4.79,7.11c1.54,2.66-1.14-.09,2.1,3.19A19.85,19.85,0,0,0,58.08,209.8Z"/><path class="cls-52" d="M30.52,60.53l0.09,7.11c0.44,5.31,0,1.37.85,3.91,4.41,1.35,2.07,1.09,5.61.65l5.16-9Z"/><path class="cls-52" d="M50.09,147.29c1.63-3.89-1.28.74,5-4.37,2.36-1.92,2.68-2.07,5.62-2.7-0.83-3.41,1.34-1.62-1.59-4.1-4.9-.34-5.21-0.39-8.71,1.57C47.85,142.7,46.71,143.7,50.09,147.29Z"/><path class="cls-52" d="M220.9,181.63l-2.07-3.07L210.47,177c0.21,4.14-.74,3.05,2.17,6.86,3.14,4.11,1.61,2.78,7.06,5C221.38,182.4,218.36,184.49,220.9,181.63Z"/><path class="cls-52" d="M145.22,220.57l1.4,1.11c3.8-3.81-.69,0,3-1.07L151,216a8.94,8.94,0,0,1-.66-2.68c0-.25-0.1-2.54-0.1-2.82a34.31,34.31,0,0,1,.64-6.74l-0.78.45c-3.43-4.21-2.61,1.89-2.57-3.37-2.68,5.47-1,3.71-.42,9.46C147.84,217.84,144.69,212.25,145.22,220.57Z"/><path class="cls-52" d="M103,153.33l-4.27,3.35c3.29,0.39,2.74.18,6.19-.55l-0.85,5.14a6.62,6.62,0,0,0,2.7-2.32c0.37-.47,1.48-2.52,2.18-3.53a20.55,20.55,0,0,1,4.12-4.46l0.46-3.78c-5.67-2.82-2.27-.93-4.15-0.46l-1.3,4.21c-4.06,1.58,4-1.88-2,1Z"/><path class="cls-52" d="M74.71,136.44c4.54,2.39,1.45.44,2,2.78C73,140,71,140.69,68,143.92l14-1.35-0.37-.27c2.85-2,3.2-1.78,5.33-4.47Z"/><path class="cls-52" d="M64.25,124l-6.32,1.7-3,6.57,4.49,0.29,2.22-1.86A2.4,2.4,0,0,1,63,129.6c-3-3.13,8.72-2.55,11.94-4.11Z"/><path class="cls-52" d="M222.69,222c4,0.15,2.72.4,5.93-1.1,0.91-5.42.78-6.63-3.51-9.79l-5.46,9.34Z"/><path class="cls-52" d="M25.9,155.8c6.5-.2,10.79-2.22,14-5.83-4-.72-2.66-0.81-6.79.87C28.16,152.86,30.17,151.75,25.9,155.8Z"/><polygon class="cls-52" points="64.46 212.76 67.8 214.85 68.02 209.96 65.74 208.09 64.46 212.76"/><path class="cls-53" d="M124,193.24c1.22-6.17,6.48-18.5,10.89-22.49,0.19,0.23,5.07,2.7-.15,11.07-11.9,19.08-4.34,6-9.94,22.2-0.86,2.48-3.27,6.33-3.93,9.18l-1.32,4.33c0.92,2.35.9,3.66,1.94,6.07l5.4,0.84,4-11C131,200,137.89,191.89,142,178.63c0.63-3.16-.07-5.68-0.37-8.26a25.07,25.07,0,0,0-1.38-2.57c-0.22-.14-2.45-1.65-2.53-1.69-2.92-1.32-1.34-.37-2.57-0.32C132.65,169,121.28,190.37,124,193.24Z"/><path class="cls-53" d="M98.73,156.68l-7.47,5.25-2.13,2.2c0.55,5.91-3.65,12.92-8.92,16.19l-2.76,6c4.85-2.87,1.77-2,7.4-4.14L78,194.78l0.66,4.8c-3.3-1.26-1-3.93-5.87,4.74l-4.51-.7,3.47,1.29,3.16,1.3,6.43-6.51c4.59-7.41,7.17-14.28,11.52-21,2.94-4.51,9.23-13.84,11.2-17.48l0.85-5.14C101.47,156.86,102,157.07,98.73,156.68Z"/><path class="cls-53" d="M110.55,187.54c-1.9,2.41-7.54,5.84-10,9-5,6.22-3,9.4-11.11,11.16-3.34,4.25-5,3-6.39,9.79,5.9,0.67,11.74-6.05,17.18-10.69,4.64-3.95,12.56-11.43,15.79-15.51-2.74-4,.31-0.41,1.49-7.05a6.64,6.64,0,0,0-1,.1l-2.39,1.13c-0.31.18-1.34,1-1.57,1.17Z"/><path class="cls-53" d="M205.11,215c2.95-5.33,1.5-3.93-.34-7.85-2.7-5.74.54-14.92-14.42-21.7-1.55,5.64-.55,4,1.11,8.24,2.18,5.62.42,5.34,4.55,11.42C200.6,211.86,197.92,212.9,205.11,215Z"/><path class="cls-53" d="M42.24,76.68c-0.67,1.67,6.11,4.89,7.58,6-1.74.45-5.87-.06-3.53,3.3,1.76,2.52,5,1.81,8.72,2.41,19.3,3.1,18.32.67,18.32,0.67l0.77-1c0.8-2.42.22-1.12,0-2.82L62.44,81.54Z"/><path class="cls-53" d="M102.52,138.25l-0.61,2.44c-2.61-2-3-.2-5.32,1-4.86,7-5.46,2.85-9.66,11.88,5.76,0.66,1.38,4.64,5.53-.46,0.28,3.54.9,0.14-1.37,3.42,7.33-2.42,7.85-5.71,10-7.55,4.37-3.74-.23-1.66,4.82-1.63l-2.9,6,3.06-1.36c6-2.92-2,.55,2-1l1.3-4.21-2.86,1.38,2.88-8.2L104,138Z"/><path class="cls-53" d="M93.42,241.27l9,4.38c3.1-4.66,9-11.44,10-16l-8.39-3.81A39.83,39.83,0,0,0,93.42,241.27Z"/><path class="cls-53" d="M36.7,173.15c4.66-.25,1-0.43,1.73,1.55-3.67,2.43-1.75.38-2.44,2.65l-0.92,2.34L30.23,177c0.65,5,1,7.07,4.85,9.34,3.65-.71,2.84-0.94,6.09-3.38a58.53,58.53,0,0,0,6.8-5.51l2.71-6-4.26-3.63A29.59,29.59,0,0,0,36.7,173.15Z"/><path class="cls-53" d="M143.49,228.43c-4.27,2.17-3.26,6-3.88,9.36-1.17,6.42-2.34,5.42.74,10.47l4.66-.11,0.91-1.67c2.59-10.24,4-9.7,2.29-19Z"/><path class="cls-53" d="M244,208.3l-1-.36,5.12,8.27c3.12,4.16,3.76,3.58,8.86,4.17l1.77-3.71-1.27-2.62-2.89-4.34c-3.3-4.17-2.34-4.25-8.84-6.21Z"/><path class="cls-53" d="M25.9,155.8c4.27-4,2.26-2.94,7.23-5,4.14-1.68,2.83-1.59,6.79-.87l2.33-1.26-3.78-1c2.4-2.58,2.06-3.62,3.09-7-5.09.62-14.08,4.14-18.08,7.61-1.26,4.77-1.15,4.64.79,8.2C27.06,156.18,24.33,157.19,25.9,155.8Z"/><path class="cls-53" d="M101.29,208.59c2.09,3.67-2.19,4.14-6.65,10,5.07,1.14,3.36.92,8,.46,2.28-3.16,3.73-4.2,5.88-6.91,2.36-3,2.53-5.39,4.2-9.47-1.78-1.65,4-.81-3.54-1.6Z"/><path class="cls-53" d="M92.88,90.46a1.73,1.73,0,0,1,.55,1c0,1.35,5.64,4.21,7.22,5.6,4.43,3.89,2.67,2.78,9.22,5.43a14.36,14.36,0,0,0-2.42-6.29c-4.21-5.34-1.78.36-4.59-6.75-2.27-5.76-6.2-7.88-10.8-12.32a12,12,0,0,0,3.06,8.19c4,5,4.73,1.19,5.25,7Z"/><path class="cls-53" d="M154.51,222.26c1,11.92-2,7.07.51,11.86,2.82,0.24.53,2.84,5.35-3.05l2.17-2.62-0.1-10.89-4.4-2.24Z"/><path class="cls-53" d="M39.76,31l5,0.89,1.65-2.73-1.52-2.3c-4-1.94-11.93-2.7-13.31-2.09a5.13,5.13,0,0,0-.68.43l-0.79,3Z"/><path class="cls-53" d="M110.9,241.27l-0.35,2-0.85.6,0.67,3.3,7.7,2.07c0.92-5-.34-5.46,1.12-12.4-5,3.53,0-1.45-4.15,2.1C112.62,241,114.1,242.55,110.9,241.27Z"/><path class="cls-54" d="M72.9,47.16c4.26,3.48.93,0,1.74,3.07,6.17,2.63,10,7.14,13.64,11.06,3.39,2.81,2.83,2.34,2.55,5.32,3.15,2.27,5.83,4,7.85,6.57,0.73,0.93,1.89,2.6,1.78,3.22,0,0.13-1.69,1.54-2.86,2.89,16.31,10.26,9.86,5.32,19.65,24.84,1.41-4.11.63-3.95,0.19-7.86,0.24,0,.76-0.29.73-0.06s0.59,0,.67,0h1.71c1.5-2.2,3.11.16-3.69-10.84-1.3-2.1-1.85-3.36-3.25-5.3-2.2-3-2.46-3.59-4.83-4.61l-2.91-5.17a5.21,5.21,0,0,0-1.12-2.66c-2.06-2.26-.94-1-2.88-1.64a50.9,50.9,0,0,1-3.93-6.89l0.45-1.16-2.76.23c-2.89-2.77-5-4.86-7.83-7.17-7.78-.22-2.46.92-7.79-2.14C77.28,47.27,73.82,47.43,72.9,47.16Z"/><path class="cls-54" d="M162.44,217.56l0.1,10.89c-1.56,6-1,6.72-5.62,10.26l0.46,0.57c6.63,0.52,1.57,7.18-1.42,12.58l4.78-1.94c4.23-4.12,9.16-27.18,7.46-32.08l-2.29-4.28c-1.19,4.35-1.87,3.65.16,2.61C162.4,214.7,163.5,214,162.44,217.56Z"/><path class="cls-54" d="M123.33,121.07L122,124.4c2.18,1.59,1.28-.6.49,3.33l-3.82-.83c-1,7.83-1.13,4.89-4.33,11.88a1.56,1.56,0,0,1,.29,1,1.47,1.47,0,0,0,.28.93l0.59,1.63c1.57,2.39,1,1.23,3,2.52l0.93-2.3,1.46-.33,0.1-3.68c-0.51-2.91-.25-2.82,1.53-6.12a39.93,39.93,0,0,1,2.43-3.55c3.26-3.24.39-.43,2.86-1.62l0.35-1.4L125,123.7l1.58-3.89c-2.7-2.31-1.07-.9-2.54-0.34Z"/><path class="cls-55" d="M38.48,104.65C53,111.51,71.12,116.51,86.75,116c6-.18,11,1.56,16.43,1.84-0.94-2.45.22-1.59-2.26-4,0,0-2.92-1.88-3.34-2.12-12.52-7.22-17.56-6.54-27.73-6.65C49.14,104.9,38.55,87,38.48,104.65Z"/><path class="cls-55" d="M92.88,90.46l7.5,1.86c-0.52-5.83-1.29-2-5.25-7a12,12,0,0,1-3.06-8.19c0.3-10.39-21.5-12.83-28.82-14.89,0.08,1.44,1.86,3.19,2.83,4,2.84,2.33,3.37,2.24,6.9,3.69a0.48,0.48,0,0,0,0-.26l1.2,2.12C85.9,75.8,85.47,86.46,92.88,90.46Z"/><path class="cls-55" d="M168.16,184.7c3.24,2.36,5.39,12.56,7.86,16,2.12,3,6.51,8.09,6.47,17l4.36,1.93c3-8.35.07-5-2.26-11.46L179.84,193c-0.93-2.13-1.28-2.2-2.44-4.62-2.09-4.37-2.94-5.8-7.78-8.54Z"/><path class="cls-55" d="M125.66,247.93c5.78,4.84,7.34,2.31,9-5.09-1.76-2.3-.27-2.09-3.52-2.07C126.79,244.76,130.69,249.93,125.66,247.93Z"/><path class="cls-56" d="M108.34,159.35c-4.61,10-8.58,14.57-13.3,23.07-3,5.49-5,8.26-7.52,12.78-2.17,3.82-4.33,6.49-6.33,10.21l-2,5.19,2.42,1.5c4.11-3.94,4.08-5.1,9.25-8.11l1.65-4.21c6.34-3.36,7.74-9,13.18-13.16l0.69-3.78,3.25-.8c1.68-2.11,3.31-3.25,5.13-5.78,3.9-5.4.24-3.42,5.28-5.71l4.26-4.92c-7.35-2.47.68-2.9-9.27-2.06l-1.59-10C110.54,158.56,112.31,157.35,108.34,159.35Z"/><path class="cls-56" d="M52.89,43.7l-1.33,4c5.36,2.1,3.44,1,7.82,1.34l0.85-4.7-4.53-1.9Z"/><path class="cls-56" d="M49.49,178.43l1.91-.24,0.11,0.45c2.86-1.32.21-1.09,4.61-1.25,0.74-6.07,1.86-4.07-3.62-7.15Z"/><path class="cls-57" d="M92.07,77.12c4.6,4.44,8.53,6.56,10.8,12.32,2.8,7.11.38,1.41,4.59,6.75a14.36,14.36,0,0,1,2.42,6.29c-6.54-2.65-4.79-1.55-9.22-5.43-1.58-1.38-7.25-4.24-7.22-5.6a1.73,1.73,0,0,0-.55-1c-7.41-4-7-14.65-18.74-18.68l-1.2-2.12a0.48,0.48,0,0,1,0,.26c-3.53-1.45-4.06-1.36-6.9-3.69-1-.79-2.75-2.55-2.83-4,7.32,2.05,29.12,4.49,28.82,14.89h0Zm-6.26-11.3c-6.28,2-15-7.6-25.51-9.57-3.72,4.65-4.29,3.2-5.86,6,6.94,4.75,14,8.3,19.24,13.81,10.44,11,37.72,38.23,49.65,45l0.73-1.6c-1.22-2.06-3.3-4.41-3-8.11-3.16-2.88-2.54-3.42-3.81-7.22-9.79-19.52-3.34-14.58-19.65-24.84,1.17-1.35,2.84-2.75,2.86-2.89,0.11-.62-1.05-2.28-1.78-3.22-2-2.58-4.7-4.3-7.85-6.57l-3.31-1.18Z"/><path class="cls-57" d="M38.48,104.65c0.07-17.66,10.66.25,31.37,0.47,10.17,0.11,15.21-.57,27.73,6.65,0.41,0.24,3.33,2.11,3.34,2.12,2.48,2.38,1.32,1.53,2.26,4-5.45-.28-10.47-2-16.43-1.84-15.63.48-33.76-4.51-48.27-11.38h0Zm-6-14.2a26.4,26.4,0,0,0,1.26,15.65c14.2,6.49,23.25,9.83,37.79,12.53,4.83,0.62,2.23-.77,7.78-0.13,2.55,0.29,6.47,1.31,9.56,1.89,6.84,1.29,12.54,1.65,19.19,3.86l10.59,2.64c1.84-4.7,1.17-1.14.39-3.77-14.67-12.51-19.45-16.59-40.54-21.24C61.92,98.23,50,96.16,32.45,90.44Z"/><path class="cls-57" d="M155.15,163.47l0,0.12c1.65,3.8,3.53,7.28,4.88,12.51l0.61,0.51c2,4.17,2.74,6.51,4.45,10.87l0.36,0.51c2.42,5.42,2.77,7,5.32,12.45l-0.06,1.16c2.11,3,2.53,4.27,4.09,6.78l3.65,8.15c2.54,6.49,2.7,10.61,16.9,9.68l0.2-3.54c-1.17-3-1.36-4.17-2.94-7.53-0.36-.76-1.71-3.82-1.75-4-1.65-5.51-.89-0.69-0.16-4.27-3.08-5.1-1.5-4.78-3.53-10.34-1.11-3-3-6.65-5.52-8.59l0.21-.38c1.07,11.12-1.75,2.23,3.21,16.4,1.62,4.64,2.9,2.89,4.81,6.79a4.8,4.8,0,0,1,.66,4.14c-1.73,8.31-3.33,4.62-3.67,4.79l-4.36-1.93c0-8.94-4.35-14-6.47-17-2.47-3.48-4.62-13.67-7.86-16,0,0-2.56-2.19-2.89-10.47L176,175.61c-2.82-3.34-.81-2.51-3-6.37-2-3.46-4.15-3.83-7-6.55-4.63-4.39-8-9.09-13.88-11.65C151.61,154.82,153.88,158.9,155.15,163.47Z"/><path class="cls-57" d="M155.64,147.62l-0.88,2.67c15.85,15.06,31.35,20.11,34.19,24.66l4.59,1.29,6.18,2.83c4.62-3.86,7-11.31,9.3-17.18l-2.58-3c-5.23-1.78-6.69-2.08-9.93.3,14.69,8.14-7.91,18.29-14.58,4.26,1.61-1.16.25-.35,2.29-1.22,4.51-1.92-.86,1.25,3.87-1.67l0.79-3.62,0.34-3.95c0.09-.47,4.59-1.6-7.33-3-3.5-.4-5.67-0.25-9-1L159.5,147C152.27,146.45,158,146.36,155.64,147.62Z"/><path class="cls-57" d="M42.24,76.68l-2.36-1.06C37.57,81.88,35,81.18,32,88.23,54,93.71,72.15,98,94.85,102.49c-5.91-7.1-13.4-15.48-22.6-19.18-6.16-2.47-7.45-2.34-9.8-1.77l11.67,3.72c0.2,1.71.78,0.4,0,2.82l-0.77,1s1,2.43-18.32-.67c-3.74-.6-7,0.11-8.72-2.41-2.35-3.36,1.78-2.84,3.53-3.3C48.35,81.57,41.57,78.35,42.24,76.68Z"/><path class="cls-57" d="M204.76,207.14c1.84,3.92,3.29,2.52.34,7.85-7.19-2.09-4.51-3.12-9.1-9.89-4.13-6.08-2.37-5.81-4.55-11.42-1.66-4.28-2.66-2.6-1.11-8.24,15,6.78,11.73,16,14.42,21.7h0Zm-14-.36c4.48,4.86,6.89,9.19,10.2,15.34l3.94-.31c6-4.38,7.33-5.6,5.29-12.3l1-2.28-1.48.36-3.48-9.24c-2.17-3.75-3.13-8.41-7.27-12.65a94.22,94.22,0,0,0-11.37-9.77l-9.23-5.57c1.37,8.4,2.06,4.76,4.45,9.88,2.51,5.37,0,6.55,6,17.54C190.56,201,190.76,203,190.78,206.78Z"/><path class="cls-57" d="M202.4,181.26a42.78,42.78,0,0,1,13.14,8.86c5.06,4.72,3.23,7.4,10.29,9.54,2.88-5,1.85-1.36,2-7.19l0.45-1.15c-2-3.16,0-1.23-3-3.86-2-3.53-2-2.67-4.38-5.83-2.54,2.87.48,0.77-1.21,7.25-5.44-2.26-3.92-.93-7.06-5-2.91-3.81-2-2.72-2.17-6.86l8.36,1.57-9-10C206.72,174.11,205,172.38,202.4,181.26Z"/><path class="cls-57" d="M229.07,185.9l2.6,0.37,2.28-5.25,0.39-1.86c-2.79-3.57-3.32-5.43-7.52-8.73l-13.59-7.73c-1,.63-0.9,1.49-2.11,1.81C218.65,177.95,223.81,174.86,229.07,185.9Z"/><path class="cls-57" d="M208,195.84l-0.1,1.88,4.24,8.55-0.93,1,2.64,0.09,3,2c2.67-4.31,3.38-3.07,5.3-7.1-1-6-5.38-7.81-9.46-12.06l-3.57-1.12C208.86,191,208.12,195.27,208,195.84Z"/><path class="cls-57" d="M82.56,144.15L82,146.28c3.11,9.59,4,0,14.59-4.57,2.28-1.23,2.71-3.08,5.32-1l0.61-2.44c-4.6.08-12.4,0.5-16.08,3.23,0,0-1.53,1.35-2.17,1.82-0.17.12-.83,0.66-0.83,0.45S82.85,144,82.56,144.15Z"/><path class="cls-57" d="M63,78.61C67.9,80,69.37,81,73.43,80L61.28,69.5c-3.19,2,1.77,2-3.42,1.65C61.12,73.39,63.6,72.9,63,78.61Z"/><path class="cls-57" d="M209.6,228l1.22,0.5,4.22-4c-5-1.31-3.12-.82-7.17.56C208.22,228.22,204.76,226.77,209.6,228Z"/><path class="cls-58" d="M63,78.61L40.35,74.19,46.68,64c5.5,0.24,9.8,3.08,14.6,5.48L73.43,80c-4.06,1-5.52,0-10.41-1.4h0ZM52.46,54.23l-2,3.15c-1.35-2.33-1.16.39-.12-2.36,1.68-4.43-2.52.89,2.09-.8h0ZM44.75,31.9l-5-.89c-4.2,3-10.69-2.35-13.25-4.64L28,32.12c5,1,13.63,4,16.34,8.24,0.55,3-3.24,5.71-3.25,5,0-.23-0.67.25-1,0.41l2.25,1.72c-6.18-.72-4.94-4.36-10.4-1,8.3,2.34,11.4,2.37,11.32,9.43-5.67,4.22-8.26,1.94-15.66-1.61,1.1,1.29.15,1.18,2.92,2.54,0.23,0.11,4.68,1.6,4.77,1.63-9.74-1,1.21-.67-4.8,2l11.72,2.68-5.16,9c4.58-.11.85,1.52,4.15-1.69-2.1,1.27-.54-3.69-1.22.94-0.45,3.1,0,1.43.34,2.75l-0.48,1.43,2.36,1.06,20.21,4.86c2.35-.57,3.64-0.7,9.8,1.77,9.2,3.7,16.69,12.09,22.6,19.18C72.15,98,54,93.71,32,88.23c-0.56,2.31-1.94,1.19.43,2.22,17.5,5.71,29.47,7.79,46,11.43,21.09,4.65,25.87,8.73,40.54,21.24L122,124.4l1.38-3.33c-11.93-6.78-39.2-34-49.65-45-5.21-5.5-12.3-9.05-19.24-13.81,1.57-2.81,2.14-1.36,5.86-6,10.48,2,19.23,11.54,25.51,9.57-6.59-1-18.33-8.79-23.65-13.54l0.91-1.86L59.38,49c-4.38-.39-2.46.76-7.82-1.34l1.33-4c-1.37-4,2.31-1.67-2.21-3.48l-1,2.25c0.29-.26.6-0.7,0.8-0.86,4.1-3.25-1.88-2.59,3.79-1.32-1.23-3.16,5.05-2.07-3.41-4.36,1.36-2.17.59,3.74,1.36-2.85,0.52-4.51-1.05-3.86-3.16-5.55l-2.22,2.68C44.71,32.49,47.09,30.66,44.75,31.9Z"/><path class="cls-58" d="M120.66,149.8c0.48,4.83,1.76,7.33,6.65,9.33,3.06-6.76-1.61-6.35-.87-4.46l0.65-3.46L124.9,149Z"/><polygon class="cls-58" points="106.27 133.62 106.46 136.83 112.22 138.51 112.83 135.83 110.09 133.98 110.9 130.23 106.94 128.73 106.27 133.62"/><path class="cls-59" d="M17.72,155.35c0.5,1.16,2.93,1.78-.19,4.66-2-3.68-1.17-1,.19-4.66h0ZM39.92,150c-3.23,3.61-7.51,5.63-14,5.83-1.56,1.39,1.17.38-1.63,0.72-1.94-3.55-2-3.43-.79-8.2,4-3.47,13-7,18.08-7.61,0.26,0,.9-1.22,3.64,1.28-0.11,3.49,0,3.94-3,6.73L39.92,150h0ZM23.46,139.66l0.86-3.34c-3.46,2-2.07,2.73-1.57,3.93a2.59,2.59,0,0,1,.71-0.59h0ZM31,131.84l-2.15,7.22c3.19,1.1,16.55-2.9,20.24-4.64C56.39,131,52.92,129,52.92,129c-5.16-5.6-16.54,1.7-21.93,2.89h0Zm-8.46-35.2c-2.63-3.08-1.22,0-.67-3.52,2.19,2.37,1.85.14,0.67,3.52h0ZM21.59,77.39c2.74,3.25,2.91.45,1.36,4.85-3.35-2.55-1.81-.62-1.36-4.85h0Zm3-9.84c-4.33-2.89-3.81-.62-2.53-5.44,4,2.51,2.57.47,2.53,5.44h0ZM22.76,49.63c-2,2.93.38,1.85-2.43,1.09-1.44-2.83-1.9.77-.82-4.71C26,49.23,22,47.1,22.76,49.63h0ZM54.33,24.29c-3.8.25-9.46-3.88-11.55-6.65C48.7,19,52.5,19.22,54.33,24.29h0ZM18.69,22.74c-1.61,5.6,0,1.62-2.41,2.46l-0.17-4,1.69-2.51c-6.34-2.23-2.76-.58-3.31-2.76-1.06-4.18,1.91.75-.57-4.59C16,12.58,18,10.54,20,8.14L17.52,6.91,12.31,9l-2.69.14C5.12,20.08,4.39,15.93,6,23.06c1.31,5.8-1.12,8.43,2,13.5,1.86,6.69,3.47,5.62,3.39,14.71-1.12,2.18-2.69.63,1.14,4.08l2.35,4c-0.7,1.47-1.88.22-.89,7.1S13.9,69,12.7,75.61c-0.86,4.73,1.44,3.93.2,8.11-0.57,1.95-2.67,3.06-.94,6.54l2.13,2.91c-1.8,8.87,1.06,9.64,6.18,16.44,12.07,6.94,15.29,8.23,29.29,10.36l-2.14,1.82c-1.24.46-2.56,1-4.6,1.67-3.32-.74,1.66-1.31-3.38-0.41-2.49.45-2.37,0.93-3.91,2a31.84,31.84,0,0,1-8.22,3.77c-3.62-.12-1.35-0.87-2.17,1.44-13.44,10.42-3,9.59-9.24,18.05a11.09,11.09,0,0,1-2.74,2.55L14,151.23l-3.55,4.54,3.69,3.38c-0.3,4.94-1.07,3.28-3,7.23A9.28,9.28,0,0,0,10,170.2c-0.15,3.1,0,2,1,4.19,2.57-1.9,4.63-4.71,7.38-7,1.8-1.5,1.4-.93,3.56-2.76l4.67-3.26c5.31-3,13.34-7.55,19.73-5.48,0.37,3.17.38,3.82-1.21,8l-3.37.59c-1.95,2.73-.6,1.76-6.22,4.77-3,1.6-3,2.58-7.35,1-2.81-3.77-1.1-.76-0.7-3.11L26,166.8c-5.45,0-2.91-.67-6.61,1.79,1.59,0.42.15-2.2,3.64,3.14l0.58,1.66c1.42,2.64,2.84-1.13-.94,4L28,178.14l1.59-1.47c3.22-3.28,2.81-3.31,7.1-3.51a29.59,29.59,0,0,1,9.72-5.34c0.25-.1.62-0.17,0.77-0.24l1.57-.71c2.59-1.49-.93,1.27,2.54-2.09l2.38-1.55,3.57-1.82c4.8-2.22,8.11-3.79,13.14-6.33,7-3.53,5.58-2.69,11.6-8.8l0.56-2.13-1-1.85L82,142.57l-1.56,2.6c-4.71,6-9.08,7.32-14.75,10-3.94,1.9-10.72,5.72-15.87,3.9l-0.84-4.64c6.18-7.25,13.58-4.45,19.69-8.09,0.6-2.19,1-1.06-1.07-1.43-5-1-11.3,1.85-17.47,2.33-3.38-3.59-2.25-4.59.34-9.6,3.49-2,3.81-1.91,8.71-1.57l8.85-.9-1.34-1.45-7.24-1.22-4.49-.29,3-6.57,6.32-1.7c0.47-1.67.79-.46-0.6-4.34,8.39,1.38,5.83.13,7.86-1-14.54-2.7-23.59-6-37.79-12.53a26.4,26.4,0,0,1-1.26-15.65c-2.37-1-1,.09-0.43-2.22-3.28-6.94,1.2-.9-4.09-6.28l0.33-3.16L30,75.85c2.71-2-1.5-1.9,3.09-1.64a27.44,27.44,0,0,1,4,3.59l2.79-2.19,0.48-1.43c-0.38-1.31-.8.35-0.34-2.75,0.68-4.63-.88.33,1.22-0.94-3.3,3.21.43,1.58-4.15,1.69-3.54.44-1.21,0.7-5.61-.65C30.6,69,31.06,73,30.61,67.64l-0.09-7.11c6-2.67-4.94-3,4.8-2-0.08,0-4.53-1.51-4.77-1.63-2.77-1.36-1.81-1.25-2.92-2.54,2.71-2,.59-4.95.38-8.43l4,0.6c5.46-3.37,4.22.26,10.4,1l-2.25-1.72c-4.55-2.81-3.17-1.28-8-2.72a9.89,9.89,0,0,1-4-1.77c-3.58-3.26-1.48-.76-1.89-4.19l0.47-3.83L28,32.12l-1.51-5.75,2-4.35c6.21-1.16,9.67.08,16,2.86L52.44,28c1.52-.91,2.29-1.35,4.06-2.45,2.43,3.93,3.56,1.86,5,2.53C56,18.73,57.74,25,53,20.68c-5-4.56-.7-0.21-2.09-4.45L47,16,31.36,9.77c3,0.37,2.29.38,3.61,2.78-3.42,3.1-1.45,2.41-5.82,2.18l5.41,3.87-15.68-.45c1.22,2.13-.87,1.5,3.51,3.56C17.25,18.6,21.86,20.7,18.69,22.74Z"/><path class="cls-59" d="M128.76,144.56l4.86-7.1C128.44,136.93,128.93,138.81,128.76,144.56Z"/><path class="cls-60" d="M223.12,163.88l3.8,3.09c4.7,3.23,5.23,2.56,9.19,4.81l4.65,3.95c0.2-.17.32,0.49,0.48,0.73-2.07,5.25.08,5.71-6.9,2.71L233.95,181c3.82,3.34,1.15,2.29,6,4.31l2.82-6.91,2.42,0.64,6.72,13.48,3.38,0.15,4.41,0.54a1.74,1.74,0,0,1,.23-0.4,1.78,1.78,0,0,0,.31-0.38l1.73-.95,0.25-1.77a12.23,12.23,0,0,1,4.86,5L265.72,196c-2.16,2.61-.4,4.06-2.84,1.31,1.87,3.73,1.28-.3,1.32,3.94l1,0c2-2.39.2-2.21,2.2-2.71,7.17,4.07,2.64-.63,3.91,5.58l4.3,2.43,4.31,2.76-2.31,2.12c-0.17,3.46-.78,2,1.21,4,2.13-1.64.31,0.94,1.17-1.44,0.15-.4.63-3,0.82-3.68l4.19,6.36,1.38-3.45c-4.46-3.33-15.22-22.48-24-29.81-13.34-11.13-12.38-7.53-29.56-17C224.6,161.9,230.1,164.74,223.12,163.88Z"/><path class="cls-61" d="M77.76,216.93l4.86,2.81-4,5.95c-6.4-1.82-2.53-4.36-.89-8.76h0ZM116,191.27c-3.23,4.08-11.15,11.56-15.79,15.51-5.44,4.63-11.28,11.35-17.18,10.69,1.43-6.79,3-5.54,6.39-9.79l2.5-3.3-1-.41c-5.18,3-5.14,4.17-9.25,8.11l-3.85,4.85a8.53,8.53,0,0,0-2.25.05l-9.32,9-1.55,4.26c0,6.06.7,6.14,1.82,11.42l8.08,3.22,0.85,0.33c-4.36-1.74-6.28-1.31,2.55-15l5.68-1.75a23.25,23.25,0,0,0,3.08-3.92c-1.1-3.22-.16.64-0.6-3.9,2.05-.91-0.11,2.8,2.77-2.73l3.32,0.42,9.12-9.75,7.92-7.5,10.32-9.86,4.61-7.66C119.76,185.64,121.23,188,116,191.27Z"/><path class="cls-62" d="M154.89,180.48c0.32,3.15,2.08,6.3,2.38,9,1.67,2.49.8,0.45,1.71,3,0.63,1.76.22,1.71,0.35,3.46,2,3.57,1.86,10-2.33,13.22l-4.06,7.26-1.4,10.2c2,0.2,2-1.93,3-4.29l3.52-6.93,4.4,2.24c1.06-3.58,0-2.87,3.64-1.4-2,1-1.35,1.74-.16-2.61l2.29,4.28c1.55-3.87.53-3.4-.45-6.32-1.22-3.62-.62-1-1.21-5.17-0.5-3.53-1-8.52-2.16-11.49-1.62-4.32-3-6.18-4.14-10.64a34.36,34.36,0,0,0-4.05-9.93c-3.69-3.8-6.27-5.23-9.29-8.4L147,168.7l8.59,8.29Z"/><path class="cls-63" d="M104.07,161.27c-2,3.64-8.26,13-11.2,17.48-4.35,6.69-6.94,13.55-11.52,21l-1.84,5,1.68,0.67c2-3.72,4.16-6.39,6.33-10.21,2.56-4.51,4.48-7.29,7.52-12.78,4.72-8.5,8.69-13.11,13.3-23.07l4.74-8.38a20.55,20.55,0,0,0-4.12,4.46c-0.7,1-1.81,3.06-2.18,3.53A6.62,6.62,0,0,1,104.07,161.27Z"/><path class="cls-64" d="M71.5,118.62c-2,1.17.53,2.42-7.86,1,1.4,3.88,1.08,2.67.6,4.34l10.68,1.48L85,126.77l5,1.28c-2.62-3.3-11-3.89-15.38-5.5,2.06-.94-0.3-1.11,4.1-1.26,3-.1,21.3,4.57,24.59,5,2.25-2.54-1,.05,1.85-1.26,1.89-.88.17,1.7,1.82-0.56a1.43,1.43,0,0,1,1-.27c-6.66-2.21-12.35-2.57-19.19-3.86-3.08-.58-7-1.6-9.56-1.89C73.74,117.85,76.34,119.24,71.5,118.62Z"/><path class="cls-65" d="M55.7,42.43l4.53,1.9L59.38,49l3.69,1.39L65.39,47H60.86l1.24-3.09,3.35-3.08-4.35-2.25c2.5-2.86,2.77-1.61,6.54-.75l1.48,0.59,1.34-1.79c4.49,2,7.61,7.93,12.19,5.69-2.46-3.92-7-6.52-11-11.07-0.33.27-.82,0.07-1.15,0.56L68.26,33a48.45,48.45,0,0,0-5.34-1.89c-0.93.07,3.32-.66-2.21,1l-3.33.72c2.06,2.78,3.2,1.92,1.73,5.28C56.52,44,57.51,34.64,55.7,42.43Z"/><path class="cls-66" d="M111.59,141.69l-2.18-1.78-2.88,8.2,2.86-1.38c1.88-.48-1.53-2.36,4.15.46L113.08,151l-4.74,8.38c4-2,2.2-.79,5.1-5.76l2.92,0.82c0.76,4.59.31,3.48,3.56,6.83,0.81-.28,1.71-1.42,2.36-1.94-1.63-1.26-3.45-2.15-3.94-3.83a4.79,4.79,0,0,1,.11-2.73c1.83-6,.86-1.87,2.2-2.94,1.5-1,2.75-2.35,4.24-.84l2.18,2.25,5,3.09,1,3.44c1.37-4.27.16-1.92,2.19-2l1.64-3.51c-2.77-.23-6-0.21-8.91-2.81-3.43-3.06.91-.47-2.42-2.78a26.59,26.59,0,0,0-5.42-2.43l-1.12,3.56c-2.86-.39-0.15,1.05-4-2.25C112,142.92,113.18,144.08,111.59,141.69Z"/><path class="cls-67" d="M145.22,220.57l-1.81-.72c1.12,4-.4.06,2.94,4.88,0.16,0.23.44,0.64,0.62,1l-3.49,2.73,4.72-1c1.69,9.31.29,8.77-2.29,19l1.35,0.54,2.17-6.06,3.5-4.18c0.37,0.6,1.18,2,1.4,2.43a5.34,5.34,0,0,1,2.6-.49c4.58-3.54,4.06-4.28,5.62-10.26l-2.17,2.62c-4.81,5.9-2.53,3.3-5.35,3.05-2.51-4.8.5,0.06-.51-11.86-1,2.36-.94,4.49-3,4.29l-4.36-1.69,2.49-4.25c-3.72,1.09.77-2.74-3,1.07Z"/><path class="cls-68" d="M34.89,205.89l-0.69,1.72c3.05,3.29,1.5.58,2.59,3.83,0.81,2.4.41,0.89,0.32,3.81-1.23.36,3.13,4.13-2.48-1,0.07,4.33-2.92.61,2.47,3.83,1.3,0.78,3.12.79,4.43,1,4,0.76,4.85,1.8,8.32,3.87-0.85-2.36,2.56-.77-3.2-4.59,4.57-.6,1.21.25,3.5-2.23L46.69,214l0.19-.47c-3.68-2.25-1.51-.29-3-2.39-1.76-2.41-.28.14-0.61-3.36l-3-1.11C37.62,206.19,37.71,206.38,34.89,205.89Z"/><path class="cls-69" d="M121,111.36c-0.29,3.7,1.8,6,3,8.11,1.48-.55-0.15-2,2.54.34,3.78,0.58,1.41,2.81,2.69-2l2.78,3.06c0-4.57.53-3.05-2.73-9.33l-1.69-4c-2.29-5.71.62-1.78-4.35-4.87a25.46,25.46,0,0,0-3.38,2.66Z"/><path class="cls-70" d="M108.78,219.23l-1.61,3.24c4.43,1.49,3.1,1.17,7.11,1.26s3.2,0,7.63,1.35l5,1.19-0.08-1.82-5.4-.84c-1-2.42-1-3.73-1.94-6.07l1.32-4.33,0.83-15.48L120,203.51a12.08,12.08,0,0,1-.5-1.26l-1-4.92-3.69,9.41a9.78,9.78,0,0,1,2.63-1.22l1.35,0.54c-0.95,5.93-.43,11.51-5.52,16C105.77,221,109.95,221.3,108.78,219.23Z"/><path class="cls-71" d="M268.38,225.44l-3.27-2-0.79,5.43c0,0.23.08,0.58,0.1,0.7l0.8,3.1c0.4,2.72.39,0.68-.14,4.15,2.27-.82,3.13-0.73,6.48,0,3.89-1.07,3-.58,6-3.14l0.71-1.77c-3-.21-3.23-1.15-4.85,1.59-0.17-1.89-.1-4.83-0.25-5.81a16.21,16.21,0,0,1-1.31-3.46l-2.2,3.28Z"/><path class="cls-72" d="M109.07,184.41l-3.39,2.19c-5.44,4.16-6.84,9.81-13.18,13.16,0.88,2.27-3.17.2,1.31,2.15l-1.92,2.47-2.5,3.3c8.09-1.75,6.16-4.94,11.11-11.16,2.51-3.15,8.15-6.58,10-9l1-2.25Z"/><path class="cls-73" d="M226.82,170.44c4.2,3.31,4.73,5.16,7.52,8.73,7,3,4.84,2.54,6.9-2.71-0.17-.24-0.28-0.9-0.48-0.73l-4.65-3.95c-4-2.25-4.5-1.58-9.19-4.81Z"/><path class="cls-74" d="M91.1,156.55l-1.16,2.71,2.39-.06-1.07,2.73,7.47-5.25,4.27-3.35,2.9-6c-5.05,0-.45-2.11-4.82,1.63C98.94,150.84,98.42,154.13,91.1,156.55Z"/><path class="cls-75" d="M136.93,145.5L133.21,148l4.42-.85c4.17-.45,5.48-3.68,7.6-9l-3-5.43C139.38,139.39,136.79,139.9,136.93,145.5Z"/><path class="cls-76" d="M65.44,40.8l-3.35,3.08c5.21,1.52,3,.55,3.2,3.18l9.35,3.17c-0.81-3.07,2.52.41-1.74-3.07L68.95,45l0.16-6.62-1.48-.59C66.76,43.27,67.73,40.6,65.44,40.8Z"/><path class="cls-77" d="M14.19,180.26L14,181.94l1.22,3.42c-1.57,4.55-.4.4,2,1.89l0.26-2c3.67-.33,4.51-0.11,7.75-3.08l0.95-2-4.33-.79c-2.82,2-2.32,1.1-2.87,1.33-1.71.72,0.14-1.4-1.81,1.34Z"/><path class="cls-78" d="M85.52,254c2-.87,1,0.23,2.54-2.35,0.29-.47,1.29-2.91,1.48-3.46,1.19-3.5.74-4.05,1.45-7.63l-2.92-1.9,2.27,1.23C81.94,251.63,86.61,243.25,85.52,254Z"/><path class="cls-79" d="M208.15,111.11c4.24,0.65,4.59-.24,8.6,0,5.56,0.33,4.94,2.17,8.46-2.54C220.34,107.08,211.38,109.09,208.15,111.11Z"/><path class="cls-80" d="M75.18,210.64L75.51,217a8.53,8.53,0,0,1,2.25-.05l3.85-4.85-2.42-1.5-3.1-1.12Z"/><path class="cls-81" d="M54.33,24.29C52.5,19.22,48.7,19,42.79,17.64,44.87,20.41,50.53,24.55,54.33,24.29Z"/><path class="cls-82" d="M17.2,187.25c2.79,2.12,2.62,2.35,5.81.73,0.39-3.93-.22-1.45,2.36-4.87l-0.17-.93c-3.24,3-4.08,2.75-7.75,3.08Z"/><rect class="cls-83" x="150.31" y="124.15" width="6.21" height="3.72" transform="translate(-20.51 221.75) rotate(-68.23)"/><path class="cls-84" d="M150.07,204.21l0.78-.45,2,2.14c0.12-2.78,1-1-.09-5-0.79-3,3.09-3.32-2.24-3.39C149.09,201.94,149.33,199.36,150.07,204.21Z"/><path class="cls-85" d="M112.83,135.83l3-4.2c-3.53-2.4-1.14-2.16-4.94-1.4L110.09,134Z"/><path class="cls-86" d="M28.26,78.8l3.21,3.06,2.24-4.31C31.4,75.25,31.27,76,30,75.85Z"/><path class="cls-87" d="M259.68,193.22l3.2,4.09c2.43,2.75.68,1.3,2.84-1.31-2.6-2.43-1.89-1.67-3.77-4.51l-1.73.95a1.78,1.78,0,0,1-.31.38A1.74,1.74,0,0,0,259.68,193.22Z"/><path class="cls-88" d="M46.88,213.57l1.27-4.37-4.92-1.38c0.33,3.5-1.14,1,.61,3.36C45.37,213.28,43.2,211.31,46.88,213.57Z"/><path class="cls-89" d="M278.24,232l-0.71,1.77c4.89,0.82,3,1,6.53-1.4L285,230c0-.14-0.81,1-1.45-0.59l-2,3.88Z"/><path class="cls-90" d="M14.18,159.15l-3.69-3.38L14,151.23c-4,1.45-.3-1.75-2.87,1.6a31.74,31.74,0,0,0-1.93,4.5Z"/><path class="cls-91" d="M65.39,47l-0.1.09c-0.24-2.64,2-1.66-3.2-3.18L60.86,47h4.54Z"/><path class="cls-92" d="M87.52,65.44l3.31,1.18c0.28-3,.83-2.52-2.55-5.32C88.94,64.11,89.49,61.07,87.52,65.44Z"/><path class="cls-93" d="M146.39,174c1.08-2.22-.49-1.24,2.51-0.77-0.19-1.28,2.05-3.26-4.14-2.9Z"/><path class="cls-94" d="M80.66,241.59c1.91-4.6,1.47-1.4-.55-4C77.41,240.06,77,239.45,80.66,241.59Z"/><path class="cls-95" d="M108.78,75.44c1.06-2.66,1.75-2-.23-2.76-0.55-1-1.76-1.57-2.68-2.41Z"/><path class="cls-96" d="M120.66,149.8l4.24-.84C123.4,147.45,122.16,148.83,120.66,149.8Z"/><text class="cls-97" transform="translate(254.06 102.24) scale(1.1 1)"><tspan class="cls-98"></tspan><tspan x="372.72" y="0"></tspan></text><text class="cls-97" transform="translate(287.56 167.57)"><tspan class="cls-99"></tspan><tspan x="368.07" y="0"></tspan></text><path class="cls-100" d="M114.74,64.72c1.55-.74-0.74-3.74-1.25-4.37a22.09,22.09,0,0,0-4.31-3.64c2.11,0.14,4.18.19,7.31,0.4a129.89,129.89,0,0,0,20.29-1.74c6.34-1.13,12.78-2.6,18.42-5.83a5.41,5.41,0,0,1,1.61-.44,2.4,2.4,0,0,1,3.66,2.09c-1.33,10.86-7.36,29.42-10.79,40.52a48.18,48.18,0,0,0-2.08,9.19c-1.09,1.71-1.78,4.51-2.4,6.94a26.89,26.89,0,0,0-1,5.29,3.4,3.4,0,0,0,.1,1.66c0,0.19.1,0.26,0.3,0.23,0,0,.54-0.44.54-0.44a2.51,2.51,0,0,1,.44-0.29,2.26,2.26,0,0,1,.87-0.27,2.6,2.6,0,0,1,.46,0l0.08-.15a39.69,39.69,0,0,0,2.17-5.09c1.23-3.46,2.2-5.13,3.46-8.09,0,0,.73-2.47.72-2.45,3.09-11.28,9.3-36.6,10.44-47a5.75,5.75,0,0,0-8.94-4.91c0.93-.8-0.77,0-1.51.41-5.16,3-11.26,4.34-17.1,5.32a89.72,89.72,0,0,1-19.29,1c-8.17-.86-5.08-0.11-12.43-2.7a4.71,4.71,0,0,0-5.47,7.23c0.08,0,7,7.64,7,7.63,4,4.73,11,14.33,8.68-.54h0ZM103.08,56a1.17,1.17,0,0,1-.67-0.11L103.08,56h0Zm53.74-6.91-0.06,0,0.06,0h0ZM147,114a2.06,2.06,0,0,1,.74.22l-0.88,0L147,114h0Zm-0.14.25a2.32,2.32,0,0,1-1,1,0.83,0.83,0,0,1-.19.13,0.23,0.23,0,0,1-.27,0,0.62,0.62,0,0,1,.13-0.49,1.57,1.57,0,0,1,.32-0.3,1.82,1.82,0,0,1,.72-0.29Z"/><path class="cls-100" d="M119.32,164c-2.77-3-18.86,21.4-19.66,22.62-0.63,1-4,5.94-4.06,6.75-10.49,11.26-16.71,20.8-29.1,31A10.82,10.82,0,0,1,61,226.3a28.81,28.81,0,0,1-6.87-.2c-4.83-.76-9.24-2.06-13.19-5C25.73,208.14,24.23,200.32,16.45,183c-5.7-12.48-4.7-12.46-2.47-25.46v-0.05a38.71,38.71,0,0,1,3.73-15.32,26.72,26.72,0,0,1,3.93-6.26c3.69-4.09,7.23-6.11,12.33-8,33.6-13,11-4.24,14.31-5.78-5.62.9-7.48-.45-15.95,1.7a32.21,32.21,0,0,0-13.59,7.31,18.19,18.19,0,0,0-1.61,1.74c-5.12,6.47-7.36,16-7.48,24.19-2,13.8-2.72,14.45,3.49,27.56,8.3,17.77,10,25.59,25.71,39,4.49,3.39,9.26,4.87,14.76,5.76a32.61,32.61,0,0,0,7.66.26,14,14,0,0,0,7.27-2.52c12.36-9.95,19.13-19.84,30.13-30,0.37-.41,48.15-49.44,20.65-33h0ZM9.66,157.1q0,0.38,0,.76A4.26,4.26,0,0,1,9.66,157.1Z"/><path class="cls-100" d="M41.6,115c1.1-2.38-18.4-6.24-18.19-6.69a17.55,17.55,0,0,1-6-3.64,12,12,0,0,1-2-2.46c-2.07-3.52-2.7-7-3.08-11-0.58-8.22.53-16,0-24.12C10.91,53.29,4.21,46.56,4,33.57,4.19,19.29.7,25.07,7.5,10a10.88,10.88,0,0,1,5.24-5.51A13.86,13.86,0,0,1,20,3.4C25.85,4.06,30.81,6.27,36,8.91,42.76,12.45,55,21,60.51,23.2a3.81,3.81,0,0,1,1.24.6,17.13,17.13,0,0,1,1.43,1.15c1.28,1.19,2.48,2.45,3.67,3.73,0.12-.1,9.4,11.23,9.3,11.3,0.11-.08,6.73,8.87,6.73,8.87,2.6,3.63,5.53,7.6,7.84,11.4,4.91,6.24,9.93,12,15.25,17.8l-0.09.32c0.91,2.57,1.87,1.6,2.26,1,0,0,1-1.6,1-1.61,0.09-.18.17-0.37,0.25-0.56l0-.13c-4.73-6.8-10-13.4-14.85-20.22a20.62,20.62,0,0,0-1-2.06c-3.07-5.25-10-13.24-13.93-17.93-3.19-3.81-6.42-7.54-9.83-11.16-1.32-1.35-2.63-2.66-4.06-3.9a19.49,19.49,0,0,0-1.87-1.41,7.36,7.36,0,0,0-2.69-1.12c-1-.87-21.67-12.52-23.6-13.52-5.75-2.83-10.95-5-17.39-5.7a17.09,17.09,0,0,0-8.92,1.49A14.16,14.16,0,0,0,4.5,8.68C-2.66,24.6.94,19,.67,33.44c0.19,14.06,6.77,20.07,8,33.75,0.29,7.91-1,15.85-1,24a36.11,36.11,0,0,0,2.35,13,21.73,21.73,0,0,0,9,10.64c7.51,3.42,48.52,13.27,22.57.14h0Zm64.67-38a1.9,1.9,0,0,1,.06-0.45,0.26,0.26,0,0,1,0,.19l-0.06.26h0Zm3.17,0.08h0s0,0,0,0l0,0,0,0h0Zm0,0,0,0Z"/><path class="cls-100" d="M228,60.38c0.53,0.15,1-1,1.07-1.35a10.33,10.33,0,0,0-.75-6.63,5.85,5.85,0,0,0-2.57-3,11.72,11.72,0,0,0-8.51-1.11,13.35,13.35,0,0,0-6.43,4,25.15,25.15,0,0,0-3.69,6.13l-3.23,7.31a171.87,171.87,0,0,0-8.45,25.13,38.33,38.33,0,0,1-7.26,13.86,44.84,44.84,0,0,1-11.86,10.18c-9.89,5.6-18.82,7.65-30.16,6.43-4.68-.56-8.63-0.64-13.14.86a15.5,15.5,0,0,0-7,5c-3.31,4.52-3.18,7.62-5.11,10.64-1.06,1.21-11.07,22.65-14.2,27.66,0,0-4.52,5.81-4.52,5.81-4.48,5.64-8.73,11.4-12.86,17.31a127.49,127.49,0,0,0-8.6,13.54,28.45,28.45,0,0,0-2.31,5.33c1,2.6,1.85,1.76,2.3,1.08a55.7,55.7,0,0,0,3.18-4.63c-0.11-.09,9.47-12.86,9.58-12.76,0,0,6.08-7.63,6.08-7.63,3.83-4.81,7.9-10.73,11.21-15.91,5-8.87,9.08-18.75,13.18-27.64,2.21-3.74,1.92-6.53,4.91-10.68a11.88,11.88,0,0,1,5.38-3.9c3.89-1.33,7.46-1.23,11.5-.76,12.12,1.25,21.62-.93,32.23-6.85a49.29,49.29,0,0,0,12.82-10.8A43.1,43.1,0,0,0,199,92a134.52,134.52,0,0,1,9.4-23.69,37.34,37.34,0,0,1,7-9.85,8,8,0,0,1,2.92-1.71,3.82,3.82,0,0,1,2.15,0,9.14,9.14,0,0,1,.43,1.88,7.65,7.65,0,0,1-.29,2.95c-2.38,6.05-6.42,14.87,5.41,2.76a12.49,12.49,0,0,0,1.95-4h0Zm-7.82-4.46a3.51,3.51,0,0,1-.2-0.43Z"/><path class="cls-101" d="M257.15,235.06a1,1,0,0,0-.26,1.33,10.77,10.77,0,0,0,3.35,4.19,14.07,14.07,0,0,0,7.69,2.81,28.85,28.85,0,0,0,10.61-2.16,3.44,3.44,0,0,1-.93.06,7.81,7.81,0,0,0,5.08-2.12A8.73,8.73,0,0,0,285,235c0.1-.46.17-0.9,0.22-1.36a41.83,41.83,0,0,0,0-8.25,68.61,68.61,0,0,0-3.78-17.26c-6.82-17.67-10.69-12.93-19-22.89a2.23,2.23,0,0,1-.31-0.69,3.57,3.57,0,0,0-.61-0.88,14.8,14.8,0,0,0-1.85-1.64,58.43,58.43,0,0,0-6.72-4.16c-6.76-3.59-13.63-6.63-20.68-9.59-10.46-4.3-26.53-10.8-37.51-13-19.6-2.93-29.23-6.29-50.16-7.12a18.2,18.2,0,0,0-5.68.76,0.21,0.21,0,0,1-.15,0,0.2,0.2,0,0,1-.1-0.1,0.18,0.18,0,0,1,0-.13,0.18,0.18,0,0,1,.07-0.1,32.4,32.4,0,0,0,5.3-4.59,14.8,14.8,0,0,0,3.31-5.52,9.32,9.32,0,0,0,.27-3.63,11.26,11.26,0,0,0-.22-1.21,11.06,11.06,0,0,0-.85-2.31,11.71,11.71,0,0,0-5.38-5.34,10.63,10.63,0,0,0-8.42-.4,12.83,12.83,0,0,0-4.33,2.69,19.16,19.16,0,0,0-3.75,4.76,34.7,34.7,0,0,0-4,8.88,13.33,13.33,0,0,0-.37,6.25,7.69,7.69,0,0,0,1.57,3.31,7.23,7.23,0,0,0,2.27,1.83c0.15,0.17.32,0.33,0.5,0.5a8,8,0,0,0,1.6,1.08,10.42,10.42,0,0,0,3.65,1,9.15,9.15,0,0,0,4.1-.49c1.06-2.33.16-2.27-.59-2.21a9.48,9.48,0,0,1-3.05-.29,8.2,8.2,0,0,1-2.47-1,4.56,4.56,0,0,1-.86-0.69,2.15,2.15,0,0,1-.49-0.74,0.41,0.41,0,0,0,0-.07l-0.07-.05a3.71,3.71,0,0,1-1.59-1.27,4,4,0,0,1-.66-1.75,10.25,10.25,0,0,1,.64-4.37,28.83,28.83,0,0,1,4.08-7.69,13.17,13.17,0,0,1,3.1-3.42,7.12,7.12,0,0,1,2.82-1.42,5.24,5.24,0,0,1,1.49-.16,7,7,0,0,1,.84.08,6.24,6.24,0,0,1,2,.67,7,7,0,0,1,2.95,3,5.59,5.59,0,0,1,.57,1.84,4.13,4.13,0,0,1-.12,1.66,10.75,10.75,0,0,1-2.18,3.63,27.29,27.29,0,0,1-4.39,4,4.6,4.6,0,0,0,4.31,8,13.65,13.65,0,0,1,4.29-.69c20.81,0.49,30.12,3.51,49.75,6.28,10.41,2,26.77,8.56,36.68,12.63,6.93,2.91,13.69,5.93,20.3,9.51a52.28,52.28,0,0,1,6.22,3.92,11.24,11.24,0,0,1,1.35,1.2,1.77,1.77,0,0,0-.06-0.23,5.7,5.7,0,0,0,.71,1.5c8.1,10.23,11.84,5.76,17.81,22.19a59,59,0,0,1,2.51,15.91,21.24,21.24,0,0,1-.83,7,4.55,4.55,0,0,1-.58,1.07,0.51,0.51,0,0,1-.49.23,4.9,4.9,0,0,0-1.11.1,26.84,26.84,0,0,1-7.62,1,7.9,7.9,0,0,1-3.48-1,11.08,11.08,0,0,1-2.2-2.09,17.07,17.07,0,0,0-1.22-1.37,7.37,7.37,0,0,0-.71-0.61c-0.39-3.57-.78-4.15,0-8.55,0.13-2.24-.53-2.4-2.16-1-3.38,4.06-3.74,5.73-4.41,11a4.41,4.41,0,0,0,2.87,4.17,5.79,5.79,0,0,0-.84-0.27v0h0ZM123.48,152.28c-0.06-.1-0.11-0.21-0.17-0.32l0.17,0.32h0Zm135.38,33.45-0.08-.28,0.08,0.28h0Zm2.89,44.93a2.59,2.59,0,0,1,0,.45Z"/><path class="cls-102" d="M257.15,235.06a1,1,0,0,0-.26,1.33,10.77,10.77,0,0,0,3.35,4.19,14.07,14.07,0,0,0,7.69,2.81,28.85,28.85,0,0,0,10.61-2.16,3.44,3.44,0,0,1-.93.06,7.81,7.81,0,0,0,5.08-2.12A8.73,8.73,0,0,0,285,235c0.1-.46.17-0.9,0.22-1.36a41.83,41.83,0,0,0,0-8.25,68.61,68.61,0,0,0-3.78-17.26c-6.82-17.67-10.69-12.93-19-22.89a2.23,2.23,0,0,1-.31-0.69,3.57,3.57,0,0,0-.61-0.88,14.8,14.8,0,0,0-1.85-1.64,58.43,58.43,0,0,0-6.72-4.16c-6.76-3.59-13.63-6.63-20.68-9.59-10.46-4.3-26.53-10.8-37.51-13-19.6-2.93-29.23-6.29-50.16-7.12a18.2,18.2,0,0,0-5.68.76,0.21,0.21,0,0,1-.15,0,0.2,0.2,0,0,1-.1-0.1,0.18,0.18,0,0,1,0-.13,0.18,0.18,0,0,1,.07-0.1,32.4,32.4,0,0,0,5.3-4.59,14.8,14.8,0,0,0,3.31-5.52,9.32,9.32,0,0,0,.27-3.63,11.26,11.26,0,0,0-.22-1.21,11.06,11.06,0,0,0-.85-2.31,11.71,11.71,0,0,0-5.38-5.34,10.63,10.63,0,0,0-8.42-.4,12.83,12.83,0,0,0-4.33,2.69,19.16,19.16,0,0,0-3.75,4.76,34.7,34.7,0,0,0-4,8.88,13.33,13.33,0,0,0-.37,6.25,7.69,7.69,0,0,0,1.57,3.31,7.23,7.23,0,0,0,2.27,1.83c0.15,0.17.32,0.33,0.5,0.5a8,8,0,0,0,1.6,1.08,10.42,10.42,0,0,0,3.65,1,9.15,9.15,0,0,0,4.1-.49c1.06-2.33.16-2.27-.59-2.21a9.48,9.48,0,0,1-3.05-.29,8.2,8.2,0,0,1-2.47-1,4.56,4.56,0,0,1-.86-0.69,2.15,2.15,0,0,1-.49-0.74,0.41,0.41,0,0,0,0-.07l-0.07-.05a3.71,3.71,0,0,1-1.59-1.27,4,4,0,0,1-.66-1.75,10.25,10.25,0,0,1,.64-4.37,28.83,28.83,0,0,1,4.08-7.69,13.17,13.17,0,0,1,3.1-3.42,7.12,7.12,0,0,1,2.82-1.42,5.24,5.24,0,0,1,1.49-.16,7,7,0,0,1,.84.08,6.24,6.24,0,0,1,2,.67,7,7,0,0,1,2.95,3,5.59,5.59,0,0,1,.57,1.84,4.13,4.13,0,0,1-.12,1.66,10.75,10.75,0,0,1-2.18,3.63,27.29,27.29,0,0,1-4.39,4,4.6,4.6,0,0,0,4.31,8,13.65,13.65,0,0,1,4.29-.69c20.81,0.49,30.12,3.51,49.75,6.28,10.41,2,26.77,8.56,36.68,12.63,6.93,2.91,13.69,5.93,20.3,9.51a52.28,52.28,0,0,1,6.22,3.92,11.24,11.24,0,0,1,1.35,1.2,1.77,1.77,0,0,0-.06-0.23,5.7,5.7,0,0,0,.71,1.5c8.1,10.23,11.84,5.76,17.81,22.19a59,59,0,0,1,2.51,15.91,21.24,21.24,0,0,1-.83,7,4.55,4.55,0,0,1-.58,1.07,0.51,0.51,0,0,1-.49.23,4.9,4.9,0,0,0-1.11.1,26.84,26.84,0,0,1-7.62,1,7.9,7.9,0,0,1-3.48-1,11.08,11.08,0,0,1-2.2-2.09,17.07,17.07,0,0,0-1.22-1.37,7.37,7.37,0,0,0-.71-0.61c-0.39-3.57-.78-4.15,0-8.55,0.13-2.24-.53-2.4-2.16-1-3.38,4.06-3.74,5.73-4.41,11a4.41,4.41,0,0,0,2.87,4.17,5.79,5.79,0,0,0-.84-0.27v0h0ZM123.48,152.28c-0.06-.1-0.11-0.21-0.17-0.32l0.17,0.32h0Zm135.38,33.45-0.08-.28m3,45.22a2.59,2.59,0,0,1,0,.45Z"/><text class="cls-103" transform="translate(293.52 236.54) scale(1.03 1)"> </text></svg>