<svg id="Layer_2" data-name="Layer 2" xmlns="http://www.w3.org/2000/svg" xmlns:xlink="http://www.w3.org/1999/xlink" viewBox="0 0 45.33 45.27">
    <path class="svg-detail" d="M36,4.8a4.55,4.55,0,0,0-4.41,3.57,4.29,4.29,0,0,0,0,1.82A4.61,4.61,0,0,0,36,13.75h0a4.55,4.55,0,0,0,4.41-3.57,4.29,4.29,0,0,0,0-1.82A4.43,4.43,0,0,0,36,4.8Zm2.46,4.8a2.47,2.47,0,0,1-2.46,2,2.57,2.57,0,0,1-2.46-2,1.33,1.33,0,0,1,0-.71,2.47,2.47,0,0,1,2.46-2,2.57,2.57,0,0,1,2.46,2A1.33,1.33,0,0,1,38.46,9.6Z"/><path class="cls-3" d="M41.5,0H28.79a3.67,3.67,0,0,0-2.66,1.1l-25,25A3.78,3.78,0,0,0,0,28.79a3.67,3.67,0,0,0,1.1,2.66L13.81,44.16a3.76,3.76,0,0,0,5.32,0l25.1-25.1a3.78,3.78,0,0,0,1.1-2.66V3.76A3.86,3.86,0,0,0,41.5,0Zm1.75,16.47a1.77,1.77,0,0,1-.52,1.23l-25.1,25a1.72,1.72,0,0,1-2.4,0L2.53,30a1.72,1.72,0,0,1,0-2.46l25.1-25A1.77,1.77,0,0,1,28.86,2H41.57A1.67,1.67,0,0,1,43.25,3.7V16.47Z"/>
</svg>